
<?xml version="1.0" encoding="utf-8"?>
<!-- Generator: Adobe Illustrator 19.1.0, SVG Export Plug-In . SVG Version: 6.00 Build 0)  -->
<svg version="1.1" id="Layer_1" xmlns="http://www.w3.org/2000/svg" xmlns:xlink="http://www.w3.org/1999/xlink" x="0px" y="0px"
	 width="300px" height="300px" viewBox="0 0 700 700" enable-background="new 0 0 1400 1400" xml:space="preserve">
<g>
	
	<g>
		<path fill="#45771C" stroke="#FFFFFF" stroke-miterlimit="10" d="M311.5,142.2c-7.9-11.2-19.1-22.6-32.7-21.5
			c-13.4,1.1-22.4,13.8-28.9,25.5c-29.7,53.2-47.6,113-52,173.8c-0.6,8.9,1.7,21.1,10.7,21.4c7.5,0.3,11.6-8.5,13.6-15.7
			c12.7-44.6,24.1-89.5,34.3-134.7c2.5-10.9,5.1-22.2,12.3-30.7c10.6-12.5,31.1-13.1,38.1,3.3c3.9,8.9,2.3,39.6,17.8,39.7
			c3.8,0,6.2-4.2,7-7.9C335.5,177,321.4,156.2,311.5,142.2z"/>
		<g>
			<path fill="#FFFFFF" d="M216.7,264.3c6.3-20.2,12.6-40.5,19-60.7c5.4-17.2,11.1-34.5,20.7-49.9c4.9-7.7,10.8-15.1,18.1-20.8
				c9.4-7.3,22.2,3,29.5,9.4c13.5,11.9,22.3,28.3,24.9,46.1c0.1,1,1.7,0.6,1.5-0.4c-2.7-18.4-11.9-35.4-26-47.5
				c-5.7-4.9-14.4-12.1-22.3-12.5c-7.6-0.3-14.6,8.6-19,13.7c-12.5,14.6-19.7,32.9-25.7,51c-7.8,23.6-14.9,47.4-22.3,71.1
				C214.8,264.9,216.4,265.3,216.7,264.3L216.7,264.3z"/>
		</g>
		<path fill="#3B6126" stroke="#FFFFFF" stroke-miterlimit="10" d="M486.6,368.2c-10.5-68.8-38.8-135.8-86.4-186.7
			c-5.6-6-12-12.1-20.1-13.9c-18.1-4.1-45.8,21.3-53.1,36.5c-2.1,4.4-3.2,10.1-1.5,14.4c0.6,1.4,1.5,2.6,2.7,3.6
			c5,3.9,12.5,1.1,17-3.3c2.9-2.9,28.4-26.4,28.6-27.7c-1.2,11.8,9.6,20.8,17.7,29.5c15.8,16.9,23.7,39.5,31.3,61.3
			c11.9,34.4,23.8,68.7,35.7,103.1c1.8,5.3,4.2,11.2,9.3,13.6c2,0.9,4.2,1.1,6.3,0.7c4.8-0.9,9.4-4.7,11.5-9.4
			C488.6,383.1,487.8,375.4,486.6,368.2z"/>
		<g>
			<path fill="#FFFFFF" d="M472.7,420.9c6.2-18.9,2-39.3-2.1-58.2c-4.4-20.8-10.6-41.3-18.4-61.1c-3.8-9.7-8.2-19.1-12.1-28.8
				c-3.9-9.8-6-20.2-10-30c-3.4-8.4-9-15.3-14.7-22.2c-7-8.5-14-17.1-21-25.6c-5-6.2-10.3-14-18.8-15.4c-9.6-1.6-18.3,5.2-24.9,11.2
				c-0.8,0.7,0.4,1.8,1.1,1.1c5.5-4.9,12.1-10.4,19.8-10.9c6.8-0.5,11.9,3.6,16.1,8.4c7.9,8.9,15.1,18.4,22.7,27.6
				c8.4,10.3,16.3,19.7,20.4,32.5c3.3,10.2,6.2,20.3,10.4,30.2c9.5,22.4,18.3,44.7,24.3,68.4c5.8,22.7,13.1,49.3,5.5,72.3
				C470.8,421.4,472.4,421.9,472.7,420.9L472.7,420.9z"/>
		</g>
		<polygon fill="#AC6E27" stroke="#FFFFFF" stroke-miterlimit="10" points="390.4,411.6 259.2,411.6 238.1,210.1 411.5,210.1 		"/>
		<rect x="206.7" y="238.6" fill="#B69558" width="21.8" height="183.6"/>
		<rect x="437.5" y="238.6" fill="#B69558" width="21.8" height="183.6"/>
		<g>
			<path fill="#C9A463" d="M431.9,297.3c-13.9,0.6-28.9,0.7-41.4,7.5c-3.1,1.7-6,3.7-8.5,6.2c-1.8,1.8-5.4,5.1-1.2,8
				c0.9,0.6,2.8,0.6,3.8,0.8c4.2,0.9,8.3,1.7,12.5,2.4h71.6v-9.9c-22,3.3-44,6.9-65.7,0.2c-0.6-0.2-0.9-1.2-0.2-1.5
				c20.8-9.7,43.7-5.9,65.9-5.4v-8.8C456.4,296.6,444.1,296.8,431.9,297.3z"/>
			<path fill="#C9A463" d="M411.2,285.3c-7.9,0.5-14.5,3.3-21.4,6.8c-6.2,3.2-12.3,6.4-18.4,9.6c-3.3,1.7-6.5,3.4-9.8,5.1
				c-2,1-7.5,2.7-8.7,4.5c-0.2,2.3-0.3,4.6-0.5,6.9c1,0.7,2,1.5,3,2.2c1,0.6,2,1.2,3,1.8h27.1c-6.6-1.5-11.9-4.3-6.8-10.3
				c9.7-11.5,25.5-14.5,39.8-15.5c16.6-1.2,33.4-1.5,50.1-1.3v-9c-12.2-0.2-24.3-0.4-36.5-0.6C425.2,285.4,418.1,284.9,411.2,285.3z
				"/>
			<path fill="#C9A463" d="M406.7,254.6c-18.5,2.1-36.8,8.5-54.7,0.7c-19.9-8.7-40.5-10.5-62-11.5c-31.3-1.5-62.7-1.4-94,0.3v7.7
				c6.4,0.3,12.9,0.7,19.4,0.6c7.2-0.1,14.3-1.5,21.5-1.8c7.1-0.3,14.3,0.2,21.4,0.9c13.4,1.3,26.7,2.9,40.2,2.3
				c11.4-0.5,23.1-1.8,34.4,0.5c5.9,1.2,17.4,4.4,17.1,12.4c-0.3,7.6-14,10.1-19.5,11.4c-11.4,2.6-23.2,3-34.7,5
				c-12.6,2.2-22.5,8-33.9,13.2c-10.2,4.7-21,4.9-32,4.9c-11.3-0.1-22.6-0.6-33.9-1.5v3.8c23.8,2.9,47.5,4.5,71.2-0.7
				c12.2-2.7,23.5-7.2,34.9-12.1c11.3-4.9,22.4-6.7,34.4-9c23.5-4.5,44.5-16.7,68.4-20.1c21.1-3,42.5-2,63.8-0.4v-5.6
				c-8.9-2.6-18.6-2.6-27.9-2.7C429.4,252.8,418,253.4,406.7,254.6z"/>
			<path fill="#C9A463" d="M403,245.6c21.7-2.2,44-6.1,65.6-2.9v-4.1H338.5c5.7,2.2,11.4,4.6,17.4,6
				C371.4,248,387.4,247.2,403,245.6z"/>
			<path fill="#C9A463" d="M236.7,241.2c21.8-0.2,43.7,0.3,65.5,1.7c9.7,0.6,19.4,1.5,28.8,3.6c9.8,2.2,18.3,6.9,27.9,9.8
				c11.3,3.4,23,0.3,34.3-1.5c9.7-1.5,19.5-2.6,29.3-3.1c14.5-0.8,31.6-2.3,46.1,2v-9.4c-22.3-3.4-45.5,0.9-67.9,3.1
				c-14.3,1.4-28.8,2-43-0.8c-8-1.6-15.6-5.2-23.4-8H196v3.9C209.6,241.8,223.1,241.3,236.7,241.2z"/>
			<path fill="#C9A463" d="M267.7,291.6c8.3-4.4,16.3-7.9,25.6-9.7c10.1-1.9,20.4-2.4,30.5-4.1c4.8-0.8,9.6-1.9,14.2-3.5
				c1.7-0.6,4.4-1.4,5.6-2.3c2.5-1.9,1.4,0.4,2.7-4.7c1-4,0.9-4.8-2.5-7.2c-1.5-1.1-3.3-1.8-5-2.4c-10.7-3.8-22.4-3.2-33.6-2.6
				c-11.4,0.6-22.6,0.5-34-0.6c-11.1-1.1-22.2-2.6-33.3-2.3c-11.7,0.3-23,2.1-34.8,1.5c-2.4-0.1-4.8-0.2-7.2-0.4v5.4
				c8.8,0.9,17.6,0.3,27-0.5c14.9-1.4,30,0,44.9,0.6c15.8,0.7,31.7,1.4,47.5,2c6.6,0.3,13.9-0.3,20.4,1c2.8,0.5,5.2,1.5,5.7,4.5
				c0.1,0.3,0,0.7-0.4,0.9c-12.3,5.8-25.6,4.6-38.7,6.9c-13.1,2.3-25,8.4-37.2,13.6c-11,4.7-22.2,8.3-34.3,8.4
				c-11.6,0.1-23.3-0.8-34.9-1.6v3.5c11.3,0.9,22.6,1.4,33.9,1.5C243.8,299.7,255.4,298.2,267.7,291.6z"/>
			<path fill="#C9A463" d="M300.9,318.1c-3.6-0.4-7.2-0.3-10.8,0c-7.1,0.7-14.1,2.4-21,4.2h39C306.5,320,304.5,318.5,300.9,318.1z"
				/>
			<path fill="#C9A463" d="M405.5,311.5c20.9,5.8,42,2.4,63.2-0.8v-3.5C447.5,306.7,425.4,303.1,405.5,311.5z"/>
			<path fill="#C9A463" d="M405,271.3c-19.5,3.1-36.9,11.2-55.4,17.5c-9.5,3.2-19.1,4.7-28.9,6.2c-9.5,1.4-18,4.5-26.8,8.2
				c-18.3,7.7-36,9.5-55.7,10.4c-14.1,0.6-28.1,1.3-42.2,1.9v6.6h66.8c9.7-2.5,19.4-5.4,29.4-5.9c4.5-0.3,12.3-0.8,16.2,2
				c1.4,1,1.9,2.4,2.3,3.9h12.5c-1.9-1.9-3.3-4.2-3.2-6.7c0.2-5.8,8.7-8.4,13-10.1c9.8-3.9,20.2-6.2,29.7-11
				c8.8-4.4,16.7-9.9,26.2-12.7c9.1-2.6,18.6-3.7,28-4.8c17.2-2,34.6-2.8,51.8,0v-4.7C447.6,269,426.1,268,405,271.3z"/>
			<path fill="#C9A463" d="M400.6,263.8c-24.4,4.2-46.3,16.7-70.8,20.6c-12.9,2-23.7,6.5-35.7,11.5c-11.4,4.8-23.4,8.2-35.6,10.2
				c-20.8,3.3-41.7,1.7-62.5-1v8.9c17.3-0.8,34.7-1.5,52-2.4c10.7-0.6,21.4-1.5,31.7-4.6c9.4-2.9,18.1-7.6,27.4-10.6
				c9.3-3,19.2-3.3,28.7-5.4c9.5-2,18.5-5.5,27.5-9c18.4-7.2,36.7-12.6,56.5-13.9c16.3-1.1,32.7,0.1,48.8,2.5v-8
				C446,261,423.1,259.9,400.6,263.8z"/>
			<path fill="#C9A463" d="M258.8,288.7c17.4-6.7,33.2-15.4,52.1-17.2c5.8-0.5,11.6-0.8,17.3-1.8c1.9-0.4,4.5-0.6,6.3-1.5
				c2-1,1.9,0.2,2.3-2.6c0.4-3.2-1.2-2.2-3.8-2.4c-11.2-0.9-22.5-1-33.8-1.4c-22.2-0.9-44.6-3-66.8-2.5c-10.4,0.2-20.8,2.4-31.2,2
				c-1.7-0.1-3.5-0.2-5.2-0.5v3c14.9-0.6,29.7-0.9,44.6-0.9c1,0,1,1.6,0,1.6c-14.9,0-29.8,0.3-44.6,0.9v5.4c21,0,42-0.1,63.1-0.6
				c0.7,0,1.2,1.2,0.4,1.5c-11.8,5-25.3,5-37.9,6.2c-8.5,0.8-17.1,1.6-25.6,2.4v4.7c10,0.6,20,1.3,30.1,1.4
				c13.4,0,26.1-3.5,38.7-7.7c5.9-2,11.8-4,17.7-5.9c3.2-1.1,6.3-2.1,9.5-3.2c1.6-0.5,3.2-1.1,4.8-1.6c-0.3-1.9-1.5-2.6-3.5-2.1
				c-12.8-1-26.3,0.4-39.2,0.7c-1,0-1-1.6,0-1.6c10.5-0.2,20.9-0.4,31.4-0.6c4.9-0.1,11.4-1.4,14.6,3.2c0.3,0.4,0,1-0.5,1.2
				c-18.6,6.2-37.4,14.1-56.7,17.7c-15.3,2.9-31.3,1.4-46.9,0.3v6.5C217.2,294.6,238.6,296.5,258.8,288.7z"/>
			<path fill="#C9A463" d="M254.4,271.8c-19.5,0.4-38.9,0.6-58.4,0.5v6.2c6.9-0.6,13.7-1.3,20.6-1.9
				C229,275.5,242.5,275.6,254.4,271.8z"/>
			<path fill="#C9A463" d="M425.4,277.7c-16.4,1.5-33.9,2.9-48.7,10.7c-6.2,3.3-12,7.1-18.6,9.8c-7,2.9-14.4,4.8-21.5,7.4
				c-2.9,1.1-9.5,2.7-11.7,5.3c-0.8,2.5-1.5,5.1-2.3,7.6c0.8,1.4,1.8,2.6,3.1,3.5c0,0,0.1,0,0.1,0.1h28.9c-1.9-1.3-3.6-2.7-4.8-4.4
				c-2.5-3.5-1-5.9,2.2-7.9c7.5-4.7,16-8.3,23.8-12.4c7-3.7,14-7.8,21.4-10.8c7.7-3.1,15.4-3.1,23.6-3c15.9,0.3,31.8,0.5,47.7,0.8
				v-6C454.4,276.2,439.9,276.4,425.4,277.7z"/>
			<path fill="#FFFFFF" d="M262,296.3c11.4-5.2,21.3-11.1,33.9-13.2c11.5-2,23.3-2.4,34.7-5c5.5-1.3,19.2-3.8,19.5-11.4
				c0.3-8-11.2-11.2-17.1-12.4c-11.3-2.3-23-1.1-34.4-0.5c-13.5,0.6-26.8-1-40.2-2.3c-7.1-0.7-14.2-1.2-21.4-0.9
				c-7.2,0.3-14.3,1.6-21.5,1.8c-6.5,0.1-12.9-0.2-19.4-0.6v1.5c2.4,0.1,4.8,0.3,7.2,0.4c11.8,0.6,23.1-1.2,34.8-1.5
				c11.2-0.3,22.2,1.2,33.3,2.3c11.4,1.1,22.6,1.2,34,0.6c11.2-0.6,22.9-1.2,33.6,2.6c1.7,0.6,3.5,1.4,5,2.4
				c3.4,2.4,3.5,3.2,2.5,7.2c-1.3,5.1-0.2,2.8-2.7,4.7c-1.2,0.9-3.9,1.7-5.6,2.3c-4.6,1.6-9.4,2.7-14.2,3.5
				c-10.1,1.7-20.4,2.2-30.5,4.1c-9.3,1.8-17.3,5.2-25.6,9.7c-12.3,6.6-23.9,8.1-37.7,8c-11.3-0.1-22.6-0.6-33.9-1.5v1.6
				c11.3,0.9,22.6,1.4,33.9,1.5C241,301.3,251.8,301,262,296.3z"/>
			<path fill="#FFFFFF" d="M265.3,287.8c12.1-5.1,24.1-11.3,37.2-13.6c13.1-2.3,26.4-1.1,38.7-6.9c0.3-0.2,0.4-0.6,0.4-0.9
				c-0.5-3-2.8-4-5.7-4.5c-6.5-1.2-13.8-0.7-20.4-1c-15.8-0.7-31.7-1.4-47.5-2c-14.9-0.6-30-2-44.9-0.6c-9.4,0.9-18.3,1.5-27,0.5v2
				c1.7,0.2,3.5,0.4,5.2,0.5c10.5,0.5,20.8-1.7,31.2-2c22.2-0.5,44.6,1.6,66.8,2.5c11.2,0.5,22.6,0.5,33.8,1.4
				c2.6,0.2,4.2-0.8,3.8,2.4c-0.4,2.8-0.3,1.6-2.3,2.6c-1.8,0.9-4.4,1.1-6.3,1.5c-5.7,1-11.5,1.3-17.3,1.8
				c-18.9,1.8-34.7,10.5-52.1,17.2c-20.2,7.8-41.6,5.9-62.8,4.3v1.6c11.6,0.8,23.3,1.7,34.9,1.6C243,296.1,254.3,292.4,265.3,287.8z
				"/>
			<path fill="#FFFFFF" d="M242.9,286.3c19.3-3.7,38.1-11.5,56.7-17.7c0.5-0.2,0.8-0.7,0.5-1.2c-3.2-4.6-9.7-3.2-14.6-3.2
				c-10.5,0.2-20.9,0.4-31.4,0.6c-1,0-1,1.6,0,1.6c12.9-0.2,26.4-1.7,39.2-0.7c2-0.5,3.2,0.2,3.5,2.1c-1.6,0.5-3.2,1.1-4.8,1.6
				c-3.2,1.1-6.3,2.1-9.5,3.2c-5.9,2-11.8,4-17.7,5.9c-12.6,4.2-25.3,7.7-38.7,7.7c-10,0-20-0.7-30.1-1.4v1.6
				C211.6,287.6,227.6,289.1,242.9,286.3z"/>
			<path fill="#FFFFFF" d="M240.6,262.9c-14.9,0-29.8,0.3-44.6,0.9v1.6c14.9-0.6,29.7-0.9,44.6-0.9
				C241.7,264.5,241.7,262.9,240.6,262.9z"/>
			<path fill="#FFFFFF" d="M259.5,271.6c0.8-0.3,0.3-1.5-0.4-1.5c-21,0.4-42,0.6-63.1,0.6v1.6c19.5,0,38.9-0.1,58.4-0.5
				c-12,3.9-25.5,3.7-37.8,4.8c-6.9,0.6-13.7,1.3-20.6,1.9v1.6c8.5-0.8,17.1-1.6,25.6-2.4C234.2,276.6,247.7,276.6,259.5,271.6z"/>
			<path fill="#FFFFFF" d="M404.9,261.5c-23.9,3.4-44.8,15.7-68.4,20.1c-12,2.3-23.1,4-34.4,9c-11.4,5-22.7,9.4-34.9,12.1
				c-23.7,5.3-47.4,3.7-71.2,0.7v1.6c20.8,2.6,41.7,4.3,62.5,1c12.2-2,24.2-5.4,35.6-10.2c11.9-5,22.8-9.5,35.7-11.5
				c24.5-3.9,46.4-16.3,70.8-20.6c22.5-3.9,45.3-2.8,68-1.1v-1.6C447.4,259.5,426,258.5,404.9,261.5z"/>
			<path fill="#FFFFFF" d="M419.9,268.1c-19.8,1.3-38.1,6.7-56.5,13.9c-9,3.5-18.1,7-27.5,9c-9.5,2.1-19.4,2.4-28.7,5.4
				c-9.3,3-18,7.7-27.4,10.6c-10.3,3.2-21,4.1-31.7,4.6c-17.3,0.9-34.7,1.7-52,2.4v1.6c14.1-0.6,28.1-1.3,42.2-1.9
				c19.6-0.9,37.4-2.7,55.7-10.4c8.8-3.7,17.4-6.8,26.8-8.2c9.9-1.5,19.4-3,28.9-6.2c18.5-6.2,35.9-14.4,55.4-17.5
				c21.1-3.3,42.6-2.3,63.6,0.9v-1.6C452.5,268.2,436.2,267,419.9,268.1z"/>
			<path fill="#FFFFFF" d="M416.9,277c-9.4,1.1-18.9,2.1-28,4.8c-9.5,2.8-17.4,8.3-26.2,12.7c-9.5,4.8-19.9,7-29.7,11
				c-4.2,1.7-12.8,4.3-13,10.1c-0.1,2.5,1.3,4.8,3.2,6.7h2.5c0,0-0.1,0-0.1-0.1c-1.3-0.9-2.3-2.1-3.1-3.5c0.8-2.5,1.5-5.1,2.3-7.6
				c2.2-2.7,8.8-4.3,11.7-5.3c7.1-2.6,14.5-4.5,21.5-7.4c6.5-2.7,12.4-6.6,18.6-9.8c14.8-7.8,32.3-9.3,48.7-10.7
				c14.5-1.3,28.9-1.5,43.2,0.8v-1.6C451.5,274.2,434.1,275,416.9,277z"/>
			<path fill="#FFFFFF" d="M397.3,286.7c-7.4,3-14.3,7.1-21.4,10.8c-7.9,4.1-16.4,7.6-23.8,12.4c-3.2,2.1-4.7,4.4-2.2,7.9
				c1.2,1.7,2.9,3.1,4.8,4.4h3.7c-1-0.6-2-1.2-3-1.8c-1-0.7-2-1.5-3-2.2c0.2-2.3,0.3-4.6,0.5-6.9c1.2-1.8,6.7-3.5,8.7-4.5
				c3.3-1.7,6.5-3.4,9.8-5.1c6.1-3.2,12.3-6.4,18.4-9.6c6.9-3.6,13.5-6.4,21.4-6.8c6.9-0.4,14,0.1,21,0.2
				c12.2,0.2,24.3,0.4,36.5,0.6v-1.6c-15.9-0.3-31.8-0.5-47.7-0.8C412.8,283.6,405,283.6,397.3,286.7z"/>
			<path fill="#FFFFFF" d="M418.6,296.4c-14.3,1-30.1,4-39.8,15.5c-5.1,6,0.2,8.8,6.8,10.3H397c-4.2-0.8-8.4-1.6-12.5-2.4
				c-1-0.2-2.9-0.2-3.8-0.8c-4.3-2.9-0.6-6.2,1.2-8c2.5-2.5,5.4-4.5,8.5-6.2c12.6-6.7,27.5-6.9,41.4-7.5c12.2-0.5,24.5-0.7,36.8-0.5
				v-1.6C452,294.9,435.2,295.2,418.6,296.4z"/>
			<path fill="#FFFFFF" d="M402.7,311c-0.7,0.3-0.4,1.3,0.2,1.5c21.8,6.8,43.7,3.1,65.7-0.2v-1.6c-21.2,3.2-42.3,6.6-63.2,0.8
				c20-8.4,42-4.8,63.2-4.3v-1.6C446.4,305.2,423.5,301.4,402.7,311z"/>
			<path fill="#FFFFFF" d="M308.5,318.3c-4-2.9-11.7-2.3-16.2-2c-10,0.6-19.7,3.4-29.4,5.9h6.2c6.9-1.8,13.9-3.5,21-4.2
				c3.6-0.3,7.2-0.4,10.8,0c3.6,0.4,5.6,2,7.2,4.2h2.7C310.4,320.7,309.9,319.3,308.5,318.3z"/>
			<path fill="#FFFFFF" d="M422.5,251.7c-9.8,0.6-19.6,1.6-29.3,3.1c-11.3,1.8-23,4.9-34.3,1.5c-9.5-2.9-18-7.6-27.9-9.8
				c-9.5-2.1-19.2-3-28.8-3.6c-21.8-1.4-43.7-1.9-65.5-1.7c-13.6,0.1-27.1,0.6-40.7,1.3v1.6c31.3-1.6,62.7-1.8,94-0.3
				c21.5,1,42.1,2.9,62,11.5c17.9,7.8,36.2,1.3,54.7-0.7c11.3-1.3,22.7-1.9,34-1.8c9.3,0,18.9,0,27.9,2.7v-1.7
				C454.1,249.4,437,250.9,422.5,251.7z"/>
			<path fill="#FFFFFF" d="M400.7,247.4c22.5-2.2,45.6-6.5,67.9-3.1v-1.6c-21.6-3.2-43.9,0.6-65.6,2.9c-15.6,1.6-31.7,2.5-47.1-1
				c-6-1.3-11.7-3.7-17.4-6h-4.2c7.8,2.8,15.4,6.4,23.4,8C371.9,249.4,386.4,248.8,400.7,247.4z"/>
			<path fill="#C9A463" d="M387.7,380.4c-9.2,2.8-18.9,1.9-28.1,4.1c8.4,1.3,16.7,2.9,24.8,6c9.7,3.8,18.6,4.6,29,4.7
				c18.5,0.1,37-0.2,55.3,2.8v-8.3c-9.9-2.5-20.1-3.9-30.4-3.8c-10,0.1-19.9,2-29.7-0.9c-0.8-0.2-0.7-1.3,0-1.5
				c19.6-6.4,39.7-11,60.1-13.9v-8c-17.5,2.8-35.1,5.9-52.4,9.8C406.4,373.5,397.3,377.5,387.7,380.4z"/>
			<path fill="#C9A463" d="M386.4,367.3c-1.4,1.2-2.1,3-3.5,4.1c-2,1.6-4.5,2.2-7,2.5c-10.7,1.5-21.7,1.5-32.4,2.8
				c-6.7,0.8-13.4,1.8-20.1,3c-4.8,0.8-12.1,1.1-16.4,3.8c-2.7,1.7-2.8,1.3,2.2,3c1,0.4,2.1,0.7,3.1,0.9c2.5,0.7,4.9,1.2,7.4,1.7
				c6.4,1.2,12.9,2.2,19.3,2.9c5.8,0.7,11.6,1.3,17.5,1.7c4.4,0.3,9,0.3,13.2,2c2.7,1.1,5.1,2.8,7.8,3.8c3,1,6.2,1.2,9.2,1.5
				c5.9,0.6,11.7,1.1,17.6,1.6c21.4,1.6,42.8,2.2,64.2,1.7v-4.7c-19.9-3.4-40.1-2.6-60.2-2.9c-9.4-0.1-16.8-1.7-25.5-5.1
				c-8.8-3.4-18-4.8-27.2-6.1c-0.9-0.1-0.7-1.3,0-1.5c10.2-3.6,21.2-1.9,31.6-5.1c9.6-3,18.7-6.9,28.6-9.1c17.5-3.9,35.1-7,52.8-9.8
				v-4.9c-24.5,2.1-49,5.2-73.3,9.3C392.1,364.9,388.9,365.1,386.4,367.3z"/>
			<path fill="#C9A463" d="M443,384.4c8.7,0.3,17.2,1.6,25.6,3.7v-16.9c-19.3,2.8-38.3,7.2-56.9,13C422,386.3,432.7,384.1,443,384.4
				z"/>
			<path fill="#C9A463" d="M196,421.5h22.5c-7.2-2.9-14.6-4.9-22.5-5.5V421.5z"/>
			<path fill="#C9A463" d="M399.7,413.3c-11.7,0-23.4,0.2-34.8-2.1c-11.4-2.3-22.2-6.5-33.1-10.2c-43.9-15.1-89.9-14.7-135.7-12.9
				v3.2c19.3-0.3,38.7-0.2,57.9,1.2c21.2,1.5,44.1,3.2,63.2,13.2c17,8.9,36.5,13,55.7,15.9h95.8V413
				C445.6,413.1,422.7,413.2,399.7,413.3z"/>
			<path fill="#C9A463" d="M266.4,417.8c-1.4-0.6-2.9-1-4.4-1.5c-3.3-1-6.8-1.8-10.2-2.5c-6.9-1.3-14-2.1-21-2.9
				c-11.6-1.4-23.2-2.8-34.7-4.2v7.7c9.4,0.7,18.2,3.3,26.6,7.1h50.2C270.9,419.6,266.9,418,266.4,417.8z"/>
			<path fill="#C9A463" d="M256.7,404.3c-20.1-2.8-40.4-4-60.6-3.6v4.4c17.6,2,35.2,3.8,52.7,6.6c7.2,1.2,19.1,2.4,24.7,7.9
				c0.6,0.6,1.1,1.3,1.4,1.9h39.1c-6.6-2.8-13.2-5.6-19.8-8.2C282,408.5,269.5,406.1,256.7,404.3z"/>
			<path fill="#C9A463" d="M307.8,402.9c-4.9-1.9-10-3-15.1-4c-12.8-2.4-25.8-3.9-38.8-4.9c-19.3-1.4-38.6-1.5-57.9-1.2v6.3
				c19.6-0.3,39.2,0.8,58.6,3.4c13.7,1.8,27,4.2,39.8,9.3c7.9,3.1,15.6,6.4,23.4,9.7h44.8c-13.2-2.3-26.4-5.5-38.4-10.7
				C318.7,408.4,313.5,405.1,307.8,402.9z"/>
			<path fill="#C9A463" d="M327.7,397.9c11,3.6,21.8,8,33,10.7c12.8,3.1,25.8,3.1,38.9,3.1c23-0.1,46-0.2,69-0.3V406
				c-28.4,0.7-57.2,0-85.2-3.7c-6.7-0.9-11.7-4.8-18.2-6.1c-8.1-1.6-16.8-1.4-25-2.3c-12.6-1.5-26.2-2.7-37.7-8.4
				c-0.6-0.3-0.5-1.1,0-1.4c6.1-3.9,13.4-4.7,20.3-5.9c7.2-1.3,14.5-2.3,21.7-3.2c7.6-0.9,15.2-1.6,22.9-2.1
				c3.7-0.2,8.1,0.1,11.6-1.3c3.9-1.6,4.5-4.9,7.5-6.8c5-3.1,13.6-2.9,19.3-3.8c7.4-1.2,14.9-2.2,22.3-3.2
				c13.4-1.8,26.9-3.2,40.4-4.4v-9c-24.6,1.2-49.7,3.1-73.7,8.5c-11.5,2.6-21.8,7.7-32.9,11.1c-11.4,3.6-23.5,4.7-35.3,6.3
				c-26,3.5-52.1,6.6-78.4,6.8c-17.5,0.2-34.9-0.8-52.3-2.2v11.4C240.2,384.6,285.2,383.9,327.7,397.9z"/>
			<path fill="#C9A463" d="M248.3,375.6c27-0.2,53.9-3.5,80.7-7.1c12.5-1.7,25-3,36.9-7.4c11.1-4.1,21.6-8.4,33.3-10.6
				c22.8-4.4,46.2-6.4,69.4-7.6v-5h-29.4c-8,1-16,2.2-24,3.4c-14.6,2.2-30.1,4.7-43.6-2.9c-0.2-0.1-0.3-0.3-0.4-0.5h-7.1
				c1.1,0.6,2.1,1.3,2.6,2.2c2.1,3.8-2.8,6.3-5.7,7.9c-7.1,4-15.4,6.4-23,9.3c-9.2,3.4-18.5,6.6-28.1,8.9c-18.8,4.6-38,5-57.2,4.5
				c-19-0.5-37.9-1.7-56.8-3.6v6.4C213.4,374.8,230.9,375.8,248.3,375.6z"/>
			<path fill="#C9A463" d="M424.8,338.3c0.9-0.1,1.8-0.3,2.6-0.4h-53.2C389.7,345.6,408.4,340.7,424.8,338.3z"/>
			<path fill="#C9A463" d="M316.7,339.9c-1.4-0.7-2.8-1.4-4.1-2H196v5.5C236,351,277.1,349.9,316.7,339.9z"/>
			<path fill="#C9A463" d="M342,343c-4.7-2.7-9.5-4.4-14.8-5.1h-11c1.1,0.5,2.1,1.1,3.2,1.6c0.6,0.3,0.4,1.3-0.2,1.5
				c-40.3,10.5-82.3,11.8-123.1,4v11.2C245.1,361,295.3,361,342,343z"/>
			<path fill="#C9A463" d="M291.1,368c16.9-2,33-7.2,48.8-13.1c7.3-2.7,15.6-5,22.1-9.3c5.2-3.4,1.9-5.9-1.9-7.7h-25.8
				c3.4,1.1,6.7,2.6,9.8,4.6c0.6,0.4,0.4,1.2-0.2,1.5c-47.2,18.7-98.1,18.8-148,13.8v7.8C227.3,368.8,259.9,371.7,291.1,368z"/>
			<path fill="#FFFFFF" d="M406,361c-5.7,0.9-14.3,0.7-19.3,3.8c-3,1.9-3.6,5.3-7.5,6.8c-3.5,1.4-7.9,1-11.6,1.3
				c-7.6,0.5-15.3,1.2-22.9,2.1c-7.3,0.9-14.5,1.9-21.7,3.2c-7,1.2-14.3,2-20.3,5.9c-0.5,0.3-0.6,1.1,0,1.4
				c11.5,5.8,25.1,6.9,37.7,8.4c8.2,1,16.9,0.7,25,2.3c6.5,1.3,11.4,5.3,18.2,6.1c28.1,3.7,56.9,4.3,85.2,3.7v-1.6
				c-21.4,0.4-42.8-0.1-64.2-1.7c-5.9-0.4-11.7-0.9-17.6-1.6c-3.1-0.3-6.3-0.6-9.2-1.5c-2.8-0.9-5.1-2.7-7.8-3.8
				c-4.2-1.7-8.8-1.7-13.2-2c-5.8-0.4-11.7-1-17.5-1.7c-6.5-0.8-12.9-1.7-19.3-2.9c-2.5-0.5-5-1-7.4-1.7c-1-0.3-2.1-0.6-3.1-0.9
				c-5-1.7-4.8-1.3-2.2-3c4.2-2.7,11.5-3,16.4-3.8c6.7-1.2,13.4-2.2,20.1-3c10.8-1.3,21.7-1.3,32.4-2.8c2.4-0.3,5-0.9,7-2.5
				c1.4-1.2,2.1-2.9,3.5-4.1c2.5-2.2,5.7-2.4,9-3c24.3-4.1,48.7-7.2,73.3-9.3v-1.6c-13.5,1.2-26.9,2.6-40.4,4.4
				C420.8,358.8,413.4,359.9,406,361z"/>
			<path fill="#FFFFFF" d="M387.3,378.9c-10.3,3.2-21.4,1.6-31.6,5.1c-0.7,0.2-0.9,1.4,0,1.5c9.2,1.4,18.5,2.8,27.2,6.1
				c8.7,3.3,16.1,5,25.5,5.1c20.1,0.2,40.3-0.5,60.2,2.9v-1.6c-18.3-3.1-36.8-2.8-55.3-2.8c-10.4,0-19.3-0.9-29-4.7
				c-8-3.1-16.3-4.7-24.8-6c9.2-2.3,18.9-1.3,28.1-4.1c9.6-3,18.7-6.9,28.6-9.1c17.3-3.9,34.8-7,52.4-9.8V360
				c-17.7,2.8-35.3,5.9-52.8,9.8C406,372,396.9,375.9,387.3,378.9z"/>
			<path fill="#FFFFFF" d="M408.5,385.1c9.8,2.9,19.7,1,29.7,0.9c10.3-0.1,20.5,1.3,30.4,3.8v-1.6c-8.4-2.1-16.9-3.4-25.6-3.7
				c-10.4-0.3-21,1.9-31.3-0.2c18.6-5.9,37.6-10.2,56.9-13v-1.6c-20.4,3-40.5,7.6-60.1,13.9C407.8,383.7,407.8,384.8,408.5,385.1z"
				/>
			<path fill="#FFFFFF" d="M331.7,400.9c10.9,3.8,21.8,7.9,33.1,10.2c11.5,2.3,23.2,2.2,34.8,2.1c23-0.1,46-0.2,69-0.3v-1.6
				c-23,0.1-46,0.2-69,0.3c-13.1,0.1-26.1,0-38.9-3.1c-11.3-2.7-22-7.1-33-10.7c-42.5-14-87.5-13.3-131.7-11.5v1.6
				C241.8,386.2,287.8,385.9,331.7,400.9z"/>
			<path fill="#FFFFFF" d="M254,392.4c-19.3-1.4-38.6-1.5-57.9-1.2v1.6c19.3-0.3,38.7-0.2,57.9,1.2c13,0.9,26,2.4,38.8,4.9
				c5.1,1,10.2,2.1,15.1,4c5.7,2.2,10.8,5.5,16.4,7.9c12,5.2,25.2,8.4,38.4,10.7h10.2c-19.2-2.9-38.7-7-55.7-15.9
				C298.1,395.6,275.2,393.9,254,392.4z"/>
			<path fill="#FFFFFF" d="M254.7,402.5c-19.4-2.6-39-3.7-58.6-3.4v1.6c20.3-0.3,40.5,0.9,60.6,3.6c12.8,1.8,25.3,4.2,37.4,9
				c6.6,2.6,13.2,5.4,19.8,8.2h4c-7.8-3.3-15.5-6.6-23.4-9.7C281.6,406.7,268.3,404.3,254.7,402.5z"/>
			<path fill="#FFFFFF" d="M248.7,411.7c-17.4-2.9-35.1-4.6-52.7-6.6v1.6c11.6,1.4,23.2,2.8,34.7,4.2c7,0.9,14,1.6,21,2.9
				c3.4,0.6,6.9,1.4,10.2,2.5c1.5,0.5,3,0.9,4.4,1.5c0.6,0.2,4.6,1.8,6.5,3.7h1.9c-0.3-0.7-0.8-1.4-1.4-1.9
				C267.8,414.1,256,412.9,248.7,411.7z"/>
			<path fill="#FFFFFF" d="M196,415.9c7.9,0.6,15.4,2.6,22.5,5.5h4c-8.4-3.8-17.1-6.4-26.6-7.1V415.9z"/>
			<path fill="#FFFFFF" d="M248.3,377.2c26.3-0.2,52.4-3.3,78.4-6.8c11.8-1.6,23.9-2.7,35.3-6.3c11.1-3.5,21.5-8.6,32.9-11.1
				c24-5.4,49.1-7.3,73.7-8.5v-1.6c-23.2,1.2-46.7,3.1-69.4,7.6c-11.7,2.3-22.2,6.6-33.3,10.6c-11.9,4.3-24.4,5.7-36.9,7.4
				c-26.8,3.6-53.6,6.9-80.7,7.1c-17.5,0.2-34.9-0.8-52.3-2.2v1.6C213.4,376.4,230.9,377.4,248.3,377.2z"/>
			<path fill="#FFFFFF" d="M310,366.2c9.5-2.4,18.9-5.5,28.1-8.9c7.6-2.8,15.9-5.3,23-9.3c2.9-1.6,7.8-4.1,5.7-7.9
				c-0.5-0.9-1.4-1.6-2.6-2.2h-4.1c3.8,1.8,7,4.4,1.9,7.7c-6.5,4.3-14.9,6.6-22.1,9.3c-15.8,5.9-32,11.2-48.8,13.1
				c-31.1,3.7-63.8,0.8-95-2.5v1.6c18.9,1.9,37.8,3.1,56.8,3.6C272.1,371.2,291.3,370.8,310,366.2z"/>
			<path fill="#FFFFFF" d="M344,343.9c0.6-0.3,0.8-1.1,0.2-1.5c-3.2-2-6.4-3.5-9.8-4.6h-7.3c5.4,0.7,10.2,2.4,14.8,5.1
				C295.3,361,245.1,361,196,356.1v1.6C245.8,362.7,296.8,362.6,344,343.9z"/>
			<path fill="#FFFFFF" d="M319.2,340.9c0.6-0.2,0.8-1.2,0.2-1.5c-1.1-0.5-2.1-1.1-3.2-1.6h-3.6c1.4,0.7,2.8,1.4,4.1,2
				c-39.5,10-80.7,11.1-120.6,3.4v1.6C236.8,352.8,278.9,351.4,319.2,340.9z"/>
			<path fill="#FFFFFF" d="M371.7,338.4c13.5,7.6,29,5.1,43.6,2.9c8-1.2,16-2.4,24-3.4h-11.9c-0.9,0.1-1.8,0.3-2.6,0.4
				c-16.3,2.5-35,7.3-50.6-0.4h-2.9C371.4,338.1,371.5,338.2,371.7,338.4z"/>
		</g>
		<path fill="#659836" stroke="#FFFFFF" stroke-miterlimit="10" d="M289.9,186.9c-16.1-14.4-26.2-17.8-48.1-13.2
			c-13.9,2.9-28.2,6-40.5,13.2c-12.2,7.2-21.7,18-31,28.7c-8.4,9.7-17,19.5-22.8,30.9c-5.2,10.3-8.1,21.5-11,32.7
			c-5.6,22-11.3,44.1-16.9,66.1c-2.4,9.2-4.5,19.8,1.1,27.4c1.8,2.5,4.2,4.2,6.9,5.4c6.8,2.8,15.5,1.8,21.8-2.4
			c8.9-5.9,13.8-16.1,17.2-26.2c6.3-18.6,8.9-38.5,7.4-58.2c-0.7-9.4-2.2-19.5,2.2-27.8c4.1-7.9,12.6-12.4,18.9-18.7
			c9.2-9.2,13.8-22,20.5-33.1c19.2-31.9,41-19.3,61.3,1.4c7.5,7.6,22.3,17.6,27.8,4.3c0-0.1,0.1-0.2,0.1-0.3
			C309.5,205.3,297.6,193.7,289.9,186.9z"/>
		<path fill="#659836" stroke="#FFFFFF" stroke-miterlimit="10" d="M409.9,178.2c-16.8,4.3-22.9,26.1-38.2,29.4
			c-23.5,5,0.7-19.3,5.5-23.3c11.7-9.8,19.8-20.2,35.8-25.6c21.6-7.2,50.8-0.3,58.4,18.5c2.9,7.2,2.5,15.3,6.5,22.1
			c3.6,6.1,10.2,10.4,14.5,16.1c8.7,11.6,6.3,26.5,7.3,40.2c1.2,16.4,7.8,32.1,13.6,47.7s11,31.9,9.4,48.2
			c-1.6,16.4-11.3,33-28.5,40.2c-6.8-4.1-8.8-12-8-19.1c0.7-7.1,3.6-13.9,4.1-21c1.8-22.7-19.8-42.3-22.6-64.9
			c-2-16.1,5.7-32.1,4.2-48.2c-1.1-12.2-7.4-23.6-14.5-34.2c-5.1-7.6-10.8-15.1-18.8-20.4S419.6,175.7,409.9,178.2z"/>
		<g>
			<path fill="#FFFFFF" d="M287.3,196.9c-18.2-8.2-37.4-15.3-57.8-12c-16.1,2.6-31,12.1-38,27.1c-4.6,9.8-6.9,19.8-14.8,27.8
				c-6.2,6.4-13.6,11.5-18.8,18.9c-10.6,15-11.6,34.5-11.4,52.3c0.1,13,0.8,26-1.9,38.9c-2.2,10.6-5.2,22.3-15.1,28.2
				c-0.9,0.5-0.1,1.9,0.8,1.4c12.5-7.5,15.6-24.4,17.2-37.8c2.3-20.1-1.4-40.4,2.7-60.3c2-9.7,5.9-19,12.7-26.4
				c5.8-6.3,13-11.2,18.4-18c6-7.5,7.8-16.8,12-25.2c4.3-8.6,11.4-15.5,19.9-19.9c24-12.4,50.3-3.9,73.2,6.4
				C287.4,198.7,288.2,197.3,287.3,196.9L287.3,196.9z"/>
		</g>
		<g>
			<path fill="#FFFFFF" d="M481.1,410.1c13.9-17.3,25.3-37.7,26.3-60.3c0.5-10.8-1.4-21.8-6.2-31.5c-6-12.1-15.5-21.1-18.8-34.7
				c-6-24.5,2.1-50.9-7.3-74.8c-3.1-7.9-8-15.2-14.9-20.1c-2.3-1.6-4.7-2.6-7.2-3.9c-4.4-2.3-5.4-5.9-7.2-9.9
				c-1.5-3.3-4.1-5.7-7.3-7.3c-10.3-4.9-22.5,0.6-31.9,5c-12.1,5.6-23.1,13.2-32.9,22.3c-0.8,0.7,0.4,1.8,1.1,1.1
				c8.1-7.5,17-14,26.8-19.2c10.1-5.3,25.7-13.6,36.9-7.5c6,3.3,5.2,9,8.9,13.6c2.4,2.9,6.6,3.8,9.7,5.6c9.1,5.5,15,15.1,18,25.1
				c6.4,21.1,1.1,43.6,4.7,65.2c1.7,10.1,5.5,18.7,11.4,27c7.3,10.3,12.8,20.5,14.2,33.3c2.8,26.1-9.7,50.2-25.5,69.9
				C479.3,409.7,480.4,410.9,481.1,410.1L481.1,410.1z"/>
		</g>
		<path fill="#659836" stroke="#FFFFFF" stroke-miterlimit="10" d="M304.3,184.6c-1-1-2.4-1.6-3.8-1.7c-2.4-0.1-4.7,0.9-6.8,2
			c-31.8,16.2-61.2,45.6-66.2,81.4c-6.4,45.9-15.9,88.4-13.7,135.3c0.5,10.8,2.4,23.3,11.8,28.7c3,1.7,6.2,2.3,9.4,2.1
			c8.4-0.6,16.6-6.9,20.6-13.9c6.8-11.9,2.1-25.9-0.8-38.3c-0.1-0.5-0.2-1-0.3-1.6c-4.6-21-3.5-42.7-2.5-64.1
			c0.6-12,1.2-24.1,4.3-35.6c4.5-16.9,14.2-31.8,24.7-45.5c10.3-13.5,16.2-27.1,23.5-42.6c0.5-1.1,1.1-2.3,1-3.5
			C305.4,186.2,304.9,185.3,304.3,184.6z"/>
		<g>
			<path fill="#FFFFFF" d="M310.6,187.4c-37.9,21.3-60.2,60.9-69.8,102.2c-5.5,23.4-7.4,47.5-7.7,71.5c-0.2,13,0.2,26,1.2,38.9
				c0.8,9.7,0.6,21.4,5.7,30.1c0.5,0.9,1.9,0.1,1.4-0.8c-5.7-9.8-5.2-24.3-5.9-35.4c-0.8-11.7-1-23.5-0.7-35.2
				c0.5-23,2.4-46.2,7.6-68.6c9.6-40.9,31.6-80.1,69.1-101.3C312.3,188.3,311.5,186.9,310.6,187.4L310.6,187.4z"/>
		</g>
		<path fill="#659836" stroke="#FFFFFF" stroke-miterlimit="10" d="M402.5,198.4c-2.3-5.8-5-11.8-10.2-16c-8-6.4-20.4-6.8-30.8-3.5
			c-1.8,0.6-3.5,1.2-5.1,2c-14,6.7-33.3,15-33.7,30.9c15.8-8.3,30.6-22.5,36.5-0.5c14.8,55.5,29.7,111.7,26.8,168.6
			c-0.3,5.7-0.7,11.5,1.9,16.7c1.5,3,4.4,5.6,7.7,7.1c2.5,1,5.2,1.4,7.9,0.7c6.7-1.7,9.4-8.4,10.9-14.3
			C431,326.9,426.9,259.7,402.5,198.4z"/>
		<g>
			<path fill="#FFFFFF" d="M343.2,187.9c25.5-12.2,45.9,9.4,52.3,32.4c5.7,20.4,7.7,42.5,10.6,63.5c2.6,18.7,4.4,37.5,4.3,56.4
				c-0.2,21.6-3.2,42.9-7.7,64c-0.2,1,1.3,1.4,1.5,0.4c7.3-34.5,9.4-68.9,5.6-103.9c-1.9-17.6-4.8-35.2-7.5-52.7
				c-2.7-17.3-4.7-36-15.9-50.3c-10.7-13.7-28.1-18.8-44-11.2C341.5,187,342.3,188.3,343.2,187.9L343.2,187.9z"/>
		</g>
		<path fill="#45771C" stroke="#FFFFFF" stroke-miterlimit="10" d="M351.7,199.1c-1.5-7.5-4.3-14.7-9.2-20.6
			c-21.3-25.9-47.4-5.2-52.9,20.5c-6.8,32.1-7.5,66.7-10.5,99.4c-2.5,27.9-5,55.9-7.5,83.8c-0.8,9.2-0.2,20.7,5.8,26.5
			c1.5,1.4,3.3,2.5,5.4,3.2c6.8,2,14.2-2.2,18.1-8.1c3.9-5.9,5.2-13.1,6.3-20.1c7.5-45,14.9-90.5,12.5-136.1
			c-0.8-14.2-10.6-33.9,9.7-38.6c7.7-1.8,15.8,0.2,23.4,2.2C352.8,207,352.4,203,351.7,199.1z"/>
		<g>
			<path fill="#FFFFFF" d="M353.5,207.1c-1.2-13.3-15.1-20.9-27.4-17.3c-16,4.6-23.2,21.3-25.5,36.4c-3.2,20.9-1,42.3-0.1,63.4
				c1,23,0.1,45.3-7.4,67.2c-3.7,10.9-8.9,21.7-11.1,33.1c-1.5,7.8,1.9,14.6,4,22c0.3,1,1.8,0.6,1.5-0.4c-1.2-4.2-3-8.4-4-12.6
				c-1.2-5,0.1-9.8,1.5-14.6c3.2-10.6,7.7-20.9,11-31.5c6.7-21.3,6.9-43.4,5.8-65.6c-1.1-22.5-4-46.7,1.8-68.8
				c2.8-10.5,8.6-20.5,18.7-25.4c11.8-5.8,28.1-0.2,29.4,14.2C352,208.1,353.6,208.2,353.5,207.1L353.5,207.1z"/>
		</g>
	</g>
	
</g>
</svg>
