<?xml version="1.0" encoding="utf-8"?>
<!-- Generator: Adobe Illustrator 19.1.0, SVG Export Plug-In . SVG Version: 6.00 Build 0)  -->
<svg version="1.1" id="Layer_1" xmlns="http://www.w3.org/2000/svg" xmlns:xlink="http://www.w3.org/1999/xlink" x="0px" y="0px"
	 width="300px" height="300px" viewBox="400 300 600 700" enable-background="new 0 0 1400 1400" xml:space="preserve">
<g>
	
	<g>
		<path fill="#3B6126" stroke="#FFFFFF" stroke-miterlimit="10" d="M716.8,603.8c0,0-3.9-55.9,45.1-85.8
			c49-29.9,115.6,0.9,133.6,24.6c17.9,23.7,5.1,61.2,5.1,61.2c-30.7-18.9-51.1-67-88.3-69.5C775,531.7,728.3,584.3,716.8,603.8z"/>
		<g>
			<path fill="#FFFFFF" d="M897.3,606.7c0.5-20.1-9-38.3-22.2-52.9c-7.5-8.4-16.1-15.7-24.8-22.7c-7.9-6.4-15.8-12.6-26.1-14.2
				c-18.4-2.9-38.6,5.6-54.3,14.6c-16.8,9.7-31,23-42.1,38.9c-0.6,0.8,0.8,1.6,1.4,0.8c10.3-14.8,23.5-27.4,38.9-36.8
				c15.6-9.5,36-18.5,54.7-16.1c11.2,1.5,19.6,8.4,28.1,15.3c7.2,5.9,14.3,12,20.8,18.8c14,14.8,24.5,33.4,24,54.3
				C895.7,607.8,897.3,607.8,897.3,606.7L897.3,606.7z"/>
		</g>
		<path fill="#45771C" stroke="#FFFFFF" stroke-miterlimit="10" d="M692.7,619.7c0,0,8.3-105.7,49.9-167.8
			c41.6-62.1,88.4-59.5,101.8-51.8c13.4,7.7,40.3,33.9,40.3,33.9c-52.5-11.5-57-4.5-96.1,38.4s-48.7,106.6-64,122.3
			C709.4,610.4,692.7,619.7,692.7,619.7z"/>
		<g>
			<path fill="#FFFFFF" d="M883.8,432c-8.1-4.8-16.5-9-25.2-12.4c-8.4-3.3-17.9-7.1-27.1-7.2c-8.4-0.1-15.8,4.3-22.5,8.9
				c-6.9,4.8-13.6,10-19.8,15.7c-13.5,12.5-22.6,27.1-29.9,44c-8.1,18.8-16,37.8-23.4,56.9c-8.6,22.2-16.3,44.7-22.1,67.8
				c-0.3,1,1.3,1.4,1.5,0.4c5.9-23.5,13.8-46.3,22.5-68.9c8.8-22.6,17.5-45.8,28.4-67.5c10.1-20.1,26.8-35.9,45.4-48.2
				c5.3-3.5,11.1-6.8,17.5-7.4c6.8-0.6,13.8,1.9,20.2,4c11.8,3.8,23,9.1,33.6,15.3C883.9,433.9,884.7,432.5,883.8,432L883.8,432z"/>
		</g>
		<path fill="#3B6126" stroke="#FFFFFF" stroke-miterlimit="10" d="M664.1,549.6c-8.3-16.6-21.2-31.6-38.4-38.6
			c-18.9-7.6-40.5-4.7-59.8,1.9c-18.6,6.4-36.3,16.3-49.4,30.9c-13.1,14.6-21.3,34.3-19.6,53.8c18.2-20.2,37.3-41.1,62.8-50.5
			c16-5.9,35-5.5,51,0.3c14.1,5.1,20.1,16.9,28.7,28.9c10.8,15.1,25,21.3,40.6,31.2C675.4,588.1,673,567.4,664.1,549.6z"/>
		<g>
			<path fill="#FFFFFF" d="M496.8,598.7c4.6-18,13.5-35,27.2-47.7c15.5-14.4,35.9-20.2,56.5-22.3c9.4-1,18.8-1.4,28.3-1.6
				c6.5-0.1,12.2,0.4,17.9,3.7c4.5,2.5,8.5,5.9,12.6,9c7.8,5.8,16.2,11.1,22.4,18.6c5,6,9.1,12.5,16.3,15.9c0.9,0.4,1.7-0.9,0.8-1.4
				c-9.4-4.5-13.6-14.3-21.1-21.1c-7.6-6.9-16.6-12.9-25-18.9c-8.4-6.1-15.8-7.7-26.2-7.4c-10.9,0.4-21.8,0.9-32.6,2.3
				c-18.9,2.6-37,8.9-51.2,22c-13.9,12.9-22.9,30.2-27.6,48.4C495,599.3,496.6,599.7,496.8,598.7L496.8,598.7z"/>
		</g>
		<path fill="#45771C" stroke="#FFFFFF" stroke-miterlimit="10" d="M684.6,610.6c0,0,14.6-36.6-8.2-96.4s-55.8-72.7-92.3-75.6
			s-45.2,62.9-45.2,62.9c44.5-44.2,66.7-38.9,93,0C658.3,540.4,647.8,587.8,684.6,610.6z"/>
		<g>
			<path fill="#FFFFFF" d="M536.5,506.2c8.9-19.5,21.1-39.6,42.2-47.4c11.1-4.1,23.3-4.1,33.9,1.7c9.1,5,17.3,13.6,23.5,21.8
				c4.1,5.5,4.3,11.8,6,18.3c1.4,5.4,3.4,10.6,5.5,15.7c4.2,10.2,9.1,20.1,13.8,30.1c10.4,22.2,20.8,44.4,31.2,66.6
				c0.4,0.9,1.8,0.1,1.4-0.8c-9.2-19.5-18.3-39.1-27.5-58.7c-9.1-19.5-20.2-39.1-24.3-60.4c-1.6-8.3-5.2-12.8-10.8-18.9
				c-5.5-6-11.4-11.8-18.7-15.6c-13.6-7.1-29.6-4.9-42.6,2.6c-16.8,9.6-27,27.1-34.8,44.2C534.7,506.3,536.1,507.1,536.5,506.2
				L536.5,506.2z"/>
		</g>
		<path fill="#3B6126" stroke="#FFFFFF" stroke-miterlimit="10" d="M717.8,605.4c0,0,0-101.2,0-139.6s-48.7-105-48.7-105
			s-26.3,57.6-13.4,92.8s25.3,132.7,36.6,148.9C703.7,618.9,717.8,605.4,717.8,605.4z"/>
		<g>
			<path fill="#FFFFFF" d="M664.4,346.5c11.8,81.6,22.8,163.4,40,244c0.2,1,1.8,0.6,1.5-0.4c-17.2-80.6-28.2-162.4-40-244
				C665.8,345,664.2,345.5,664.4,346.5L664.4,346.5z"/>
		</g>
		<g>
			<polygon fill="#AC6E27" stroke="#FFFFFF" stroke-miterlimit="10" points="757.5,789.3 626.3,789.3 605.2,587.7 778.6,587.7 			
				"/>
			<rect x="569.1" y="616.3" fill="#B69558" width="21.8" height="183.6"/>
			<rect x="799.9" y="616.3" fill="#B69558" width="21.8" height="183.6"/>
		</g>
		<rect x="556.4" y="616.3" fill="#C9A463" stroke="#FFFFFF" stroke-miterlimit="10" width="272.6" height="83.6"/>
		<g>
			<path fill="#FFFFFF" d="M681.1,637.7c1.1-0.7,2.1-1.2,3.3-1.7c2.7-1.1,5.4-1.9,8.3-2.5c5.9-1.2,11.9-1.4,17.9-1.2
				c11.3,0.2,22.4,1.4,33.7,0.6c11.2-0.7,22.2-2.4,33.4-3c12.8-0.6,25.4,1.9,38.2,1.6c4.4-0.1,8.9-0.3,13.3-0.6v-1.6
				c-4.4,0.2-8.8,0.5-13.3,0.6c-13.2,0.3-26.1-2.3-39.4-1.5c-13.1,0.7-26.1,2.9-39.3,3.2c-12.7,0.3-25.3-1.8-38-0.6
				c-7.5,0.7-19.3,2.3-23.2,10c-3.6,7.2,5.3,10.5,10.6,12.4c10,3.6,20.8,4.5,31.3,5.7c13.6,1.6,25.6,4.5,37.8,11
				c11,5.9,21.1,8.6,33.5,8.7c13.3,0.1,26.6-0.5,39.9-1.5v-1.6c-9.2,0.7-18.5,1.3-27.8,1.5c-11.9,0.3-24.3,0.9-35.5-3.8
				c-8.8-3.7-16.6-9.1-25.8-11.9c-9.2-2.7-18.9-3.6-28.4-4.7c-5.2-0.6-10.4-1.3-15.5-2.4c-2.4-0.5-4.8-1.1-7.1-1.9
				c-2.5-0.8-7.6-1.8-9.4-3.9c-0.3-1.3-0.6-2.5-1-3.8C676.7,641.7,677.5,639.3,681.1,637.7z"/>
			<path fill="#FFFFFF" d="M819.3,638.9c3.3,0.1,6.5-0.1,9.8-0.5v-2c-8.4,0.9-16.9,0.4-25.9-0.5c-15.3-1.5-30.8-0.2-46.1,0.5
				c-15.4,0.7-30.8,1.3-46.3,2c-7,0.3-14.6-0.2-21.5,1c-2.9,0.5-5.3,1.5-5.8,4.6c-0.1,0.3,0,0.7,0.4,0.9c11.9,5.6,24.9,4.7,37.6,6.8
				c13.5,2.2,25.8,8.5,38.3,13.8c10.6,4.5,21.5,8.1,33.1,8.4c12,0.3,24.1-0.7,36.1-1.6v-1.5c-18.3,1.6-37.6,3.7-54.9-1.6
				c-18.1-5.5-34.3-16.3-53.2-19.1c-9.7-1.5-19.8-1.1-29.3-3.8c-2.2-0.6-3.1-0.3-3.3-2.9c-0.2-2.6,0.1-2.1,2.5-2.4
				c2.5-0.3,5-0.2,7.5-0.3c5.8-0.2,11.7-0.5,17.5-0.7c22.4-1,44.8-2.2,67.2-2.8C795.2,636.6,807.1,638.6,819.3,638.9z"/>
			<path fill="#FFFFFF" d="M731.8,643.3c12.8-1,26.3,0.4,39.2,0.7c1,0,1-1.6,0-1.6c-10.5-0.2-20.9-0.4-31.4-0.6
				c-4.8-0.1-11.4-1.4-14.6,3.2c-0.3,0.4,0,1,0.5,1.2c18.6,6.2,37.4,14,56.7,17.7c15.3,2.9,31.3,1.4,46.9,0.3v-1.6
				c-10,0.6-20,1.3-30.1,1.4c-13.4,0-26.1-3.5-38.7-7.7c-5.9-2-11.8-4-17.7-5.9c-3.2-1.1-6.3-2.1-9.5-3.2c-1.6-0.5-3.2-1.1-4.8-1.6
				C728.6,643.5,729.7,642.8,731.8,643.3z"/>
			<path fill="#FFFFFF" d="M784.4,640.5c-1,0-1,1.6,0,1.6c14.9,0,29.8,0.3,44.6,0.9v-1.6C814.2,640.7,799.3,640.4,784.4,640.5z"/>
			<path fill="#FFFFFF" d="M766,647.7c-0.7,0-1.2,1.2-0.4,1.5c11.8,5,25.3,5,37.9,6.2c8.5,0.8,17.1,1.6,25.6,2.4v-1.6
				c-6.9-0.6-13.7-1.3-20.6-1.9c-12.3-1.1-25.8-1-37.8-4.8c19.5,0.4,38.9,0.6,58.4,0.5v-1.6C808,648.4,787,648.2,766,647.7z"/>
			<path fill="#FFFFFF" d="M624.4,641.4c24.4,4.2,46.3,16.7,70.8,20.6c12.9,2,23.7,6.5,35.7,11.5c11.4,4.8,23.4,8.2,35.6,10.2
				c20.8,3.3,41.7,1.7,62.5-1v-1.6c-23.8,2.9-47.5,4.5-71.2-0.7c-12.2-2.7-23.5-7.2-34.9-12.1c-11.3-4.9-22.4-6.7-34.4-9
				c-23.5-4.5-44.5-16.7-68.4-20.1c-21.1-3-42.5-2-63.8-0.4v1.6C579.1,638.6,602,637.5,624.4,641.4z"/>
			<path fill="#FFFFFF" d="M753.4,686.6c-9.9-2-18.8-6.2-28.1-9.9c-8.9-3.6-17.8-5.2-27.2-6.6c-10-1.4-19.4-4.1-28.8-7.6
				c-18.1-6.7-35.5-13.6-54.8-15.9c-19.3-2.3-38.9-1.2-58.1,1.7v1.6c17.7-2.7,35.6-3.8,53.4-2.2c20.5,1.9,38.8,8.8,57.9,16
				c9,3.4,18.2,6.2,27.7,7.7c9.8,1.5,19.1,2.8,28.4,6.5c8.9,3.5,17.5,7.6,26.8,9.8c9,2.1,18.3,2.8,27.6,3.2
				c16.9,0.9,33.9,1.6,50.8,2.4v-1.6c-14.1-0.6-28.1-1.3-42.2-1.9C775.7,689.2,764.4,688.8,753.4,686.6z"/>
			<path fill="#FFFFFF" d="M699.3,699.9h2.5c1.9-1.9,3.3-4.2,3.2-6.6c-0.2-5.6-7.9-8.1-11.9-9.8c-10.1-4.2-20.9-6.4-30.8-11.4
				c-8.4-4.2-16-9.6-25.1-12.3c-9-2.8-18.5-3.9-27.9-5c-17.6-2.1-35.4-3-53-0.2v1.6c13.9-2.3,28-2.2,42-1
				c16.8,1.4,34.8,2.9,49.9,10.9c6.2,3.3,12,7.1,18.6,9.8c6.7,2.8,13.7,4.6,20.5,7.1c3.8,1.4,8.8,2.7,12,5.3
				C704.9,692.6,702.9,696.9,699.3,699.9z"/>
			<path fill="#FFFFFF" d="M675.1,695.5c2.5-3.6,1-5.7-2.2-7.9c-7.3-4.9-16.1-8.3-23.8-12.4c-7-3.7-14-7.8-21.4-10.8
				c-7.7-3.1-15.4-3.1-23.6-3c-15.9,0.2-31.8,0.5-47.7,0.8v1.6c11.7-0.2,23.5-0.4,35.2-0.6c7-0.1,14-0.5,21-0.2
				c8.4,0.3,15.3,3.1,22.6,6.9c5.8,3,11.6,6,17.3,9c3.3,1.7,6.5,3.4,9.8,5.1c2.5,1.3,6.7,2.5,8.7,4.5c1.7,0.5,2.2,1.8,1.3,4
				c1.2,2.9,0.3,4.8-2.8,5.6c-1,0.6-2,1.2-3,1.8h3.8C672.3,698.6,674,697.1,675.1,695.5z"/>
			<path fill="#FFFFFF" d="M641.7,697.2c-4.5,1-9.1,1.9-13.6,2.7h8.4c1.1-0.2,2.2-0.4,3.3-0.6c2.3-0.5,5.8-0.7,7.6-2.4
				c2.5-2.5,0.8-4.9-1.1-7.2c-9.4-11.2-24.8-14.4-38.6-15.5c-17-1.4-34.1-1.6-51.2-1.3v1.6c11.8-0.1,23.7,0,35.5,0.5
				c14.3,0.6,29.8,0.6,42.7,7.5c2.8,1.5,5.5,3.3,7.8,5.5c2.2,2.1,2.8,2.4,2.3,5.8C644.2,697.2,644.5,696.6,641.7,697.2z"/>
			<path fill="#FFFFFF" d="M556.4,689.9c22,3.3,44,6.9,65.7,0.2c0.6-0.2,0.9-1.2,0.2-1.5c-20.8-9.6-43.7-5.9-65.9-5.4v1.6
				c21.2-0.5,43.2-4.1,63.2,4.3c-20.9,5.8-42,2.4-63.2-0.8V689.9z"/>
			<path fill="#FFFFFF" d="M716.6,695.9c-1.4,1.1-1.7,2.4-2.2,3.9h2.6c1.2-1.7,2.6-3.1,5.2-3.8c3.9-1.2,8.9-0.7,12.8-0.3
				c7.1,0.7,14.1,2.4,21,4.2h6.2c-9.7-2.5-19.3-5.3-29.4-5.9C728.4,693.6,720.4,693,716.6,695.9z"/>
			<path fill="#FFFFFF" d="M731.3,620c-19.1,1-38.2,2.5-55.9,10.2c-5.6,2.4-10.7,4.7-16.9,5.2c-6.2,0.5-12.3-0.5-18.4-1.5
				c-9.6-1.6-19.3-3.1-29-3.9c-12.1-1-24.3-1.4-36.5-0.9c-6.2,0.2-12.3,0.8-18.1,2.4v1.7c7.4-2.1,15.2-2.4,23-2.6
				c10.2-0.2,20.3,0.1,30.4,0.9c10.8,0.9,21.4,2.6,32.1,4.3c8.6,1.4,17.3,2.2,25.7-0.6c9.1-3,17.3-7.4,26.8-9.5
				c10.5-2.3,21.2-3.2,31.9-3.8c21.5-1.2,43-1.7,64.6-1.5c12.7,0.2,25.4,0.6,38.1,1.3v-1.6C796.5,618.4,763.8,618.4,731.3,620z"/>
			<path fill="#FFFFFF" d="M556.4,621.9c22.3-3.4,45.5,0.9,67.9,3.1c13.9,1.4,28,1.9,41.8-0.6c8.3-1.5,16.3-5.3,24.4-8.2h-4
				c-5.7,2.2-11.4,4.6-17.4,6c-15.4,3.5-31.5,2.6-47.1,1c-21.7-2.2-44-6.1-65.6-2.9V621.9z"/>
			<path fill="#C9A463" d="M705.9,796.8c40.3-10.5,82.3-11.8,123.1-4v-11.2c-49.1-4.9-99.3-4.9-145.9,13.1c4.7,2.7,9.5,4.4,14.8,5.1
				h11c-1.1-0.5-2.1-1.1-3.2-1.6C705.1,797.9,705.2,796.9,705.9,796.8z"/>
			<path fill="#C9A463" d="M708.4,797.8c1.4,0.7,2.8,1.4,4.1,2H829v-5.5C789.1,786.6,747.9,787.8,708.4,797.8z"/>
			<path fill="#C9A463" d="M768.4,733.3c20.1,2.8,40.4,4,60.6,3.6v-4.4c-17.6-2-35.2-3.8-52.7-6.6c-7.2-1.2-19.1-2.4-24.7-7.9
				c-0.6-0.6-1.1-1.3-1.4-1.9h-39.1c6.6,2.8,13.2,5.6,19.8,8.2C743.1,729.1,755.5,731.6,768.4,733.3z"/>
			<path fill="#C9A463" d="M717.2,734.8c4.9,1.9,10,3,15.1,4c12.8,2.4,25.8,3.9,38.8,4.9c19.3,1.4,38.6,1.5,57.9,1.2v-6.3
				c-19.6,0.3-39.2-0.8-58.6-3.4c-13.7-1.8-27-4.2-39.8-9.3c-7.9-3.1-15.6-6.4-23.4-9.7h-44.8c13.2,2.3,26.4,5.5,38.4,10.7
				C706.4,729.3,711.6,732.6,717.2,734.8z"/>
			<path fill="#C9A463" d="M582,753.3c-8.7-0.3-17.2-1.6-25.6-3.7v16.9c19.3-2.8,38.3-7.2,56.9-13
				C603.1,751.4,592.4,753.6,582,753.3z"/>
			<path fill="#C9A463" d="M758.7,719.9c1.4,0.6,2.9,1,4.4,1.5c3.3,1,6.8,1.8,10.2,2.5c6.9,1.3,14,2.1,21,2.9
				c11.6,1.4,23.2,2.8,34.7,4.2v-7.7c-9.4-0.7-18.2-3.3-26.6-7.1h-50.2C754.1,718.1,758.1,719.7,758.7,719.9z"/>
			<path fill="#C9A463" d="M829,716.2h-22.5c7.2,2.9,14.6,4.9,22.5,5.5V716.2z"/>
			<path fill="#C9A463" d="M660.2,726.5c11.4,2.3,22.2,6.5,33.1,10.2c43.9,15.1,89.9,14.7,135.7,12.9v-3.2
				c-19.3,0.3-38.7,0.2-57.9-1.2c-21.2-1.5-44.1-3.2-63.2-13.2c-17-8.9-36.5-13-55.7-15.9h-95.8v8.5c23-0.1,46-0.2,69-0.3
				C637.1,724.3,648.8,724.2,660.2,726.5z"/>
			<path fill="#C9A463" d="M681.1,793.8C728.2,775,779.2,775,829,780v-7.8c-31.3-3.3-63.9-6.1-95-2.5c-16.9,2-33,7.2-48.8,13.1
				c-7.3,2.7-15.6,5-22.1,9.3c-5.2,3.4-1.9,5.9,1.9,7.7h25.8c-3.4-1.1-6.7-2.6-9.8-4.6C680.3,794.8,680.4,794,681.1,793.8z"/>
			<path fill="#C9A463" d="M638.6,770.4c1.4-1.2,2.1-3,3.5-4.1c2-1.6,4.5-2.2,7-2.5c10.7-1.5,21.7-1.5,32.4-2.8
				c6.7-0.8,13.4-1.8,20.1-3c4.8-0.8,12.1-1.1,16.4-3.8c2.7-1.7,2.8-1.3-2.2-3c-1-0.4-2.1-0.7-3.1-0.9c-2.5-0.7-4.9-1.2-7.4-1.7
				c-6.4-1.2-12.9-2.2-19.3-2.9c-5.8-0.7-11.6-1.3-17.5-1.7c-4.4-0.3-9-0.3-13.2-2c-2.7-1.1-5.1-2.8-7.8-3.8c-3-1-6.2-1.2-9.2-1.5
				c-5.9-0.6-11.7-1.1-17.6-1.6c-21.4-1.6-42.8-2.2-64.2-1.7v4.7c19.9,3.4,40.1,2.6,60.2,2.9c9.4,0.1,16.8,1.7,25.5,5.1
				c8.8,3.4,18,4.8,27.2,6.1c0.9,0.1,0.7,1.3,0,1.5c-10.2,3.6-21.2,1.9-31.6,5.1c-9.6,3-18.7,6.9-28.6,9.1
				c-17.5,3.9-35.1,7-52.8,9.8v4.9c24.5-2.1,49-5.2,73.3-9.3C632.9,772.8,636.2,772.6,638.6,770.4z"/>
			<path fill="#C9A463" d="M637.3,757.2c9.2-2.8,18.9-1.9,28.1-4.1c-8.4-1.3-16.7-2.9-24.8-6c-9.7-3.8-18.6-4.6-29-4.7
				c-18.5-0.1-37,0.2-55.3-2.8v8.3c9.9,2.5,20.1,3.9,30.4,3.8c10-0.1,19.9-2,29.7,0.9c0.8,0.2,0.7,1.3,0,1.5
				c-19.6,6.4-39.7,11-60.1,13.9v8c17.5-2.8,35.1-5.9,52.4-9.8C618.7,764.1,627.7,760.2,637.3,757.2z"/>
			<path fill="#C9A463" d="M658.3,797.6c-2.1-3.8,2.8-6.3,5.7-7.9c7.1-4,15.4-6.4,23-9.3c9.2-3.4,18.5-6.6,28.1-8.9
				c18.8-4.6,38-5,57.2-4.5c19,0.5,37.9,1.7,56.8,3.6v-6.4c-17.4-1.3-34.8-2.3-52.3-2.2c-27,0.2-53.9,3.5-80.7,7.1
				c-12.5,1.7-25,3-36.9,7.4c-11.1,4.1-21.6,8.4-33.3,10.6c-22.8,4.4-46.2,6.4-69.4,7.6v5h29.4c8-1,16-2.2,24-3.4
				c14.6-2.2,30.1-4.7,43.6,2.9c0.2,0.1,0.3,0.3,0.4,0.5h7.1C659.7,799.2,658.7,798.5,658.3,797.6z"/>
			<path fill="#C9A463" d="M600.3,799.4c-0.9,0.1-1.8,0.3-2.6,0.4h53.2C635.3,792.1,616.6,797,600.3,799.4z"/>
			<path fill="#C9A463" d="M663,773.5c11.4-3.6,23.5-4.7,35.3-6.3c26-3.5,52.1-6.6,78.4-6.8c17.5-0.2,34.9,0.8,52.3,2.2v-11.4
				c-44.2,1.8-89.2,2.5-131.7-11.5c-11-3.6-21.8-8-33-10.7c-12.8-3.1-25.8-3.1-38.9-3.1c-23,0.1-46,0.2-69,0.3v5.4
				c28.4-0.7,57.2,0,85.2,3.7c6.7,0.9,11.7,4.8,18.2,6.1c8.1,1.6,16.8,1.4,25,2.3c12.6,1.5,26.2,2.7,37.7,8.4c0.6,0.3,0.5,1.1,0,1.4
				c-6.1,3.9-13.4,4.7-20.3,5.9c-7.2,1.3-14.5,2.3-21.7,3.2c-7.6,0.9-15.2,1.6-22.9,2.1c-3.7,0.2-8.1-0.1-11.6,1.3
				c-3.9,1.6-4.5,4.9-7.5,6.8c-5,3.1-13.6,2.9-19.3,3.8c-7.4,1.2-14.9,2.2-22.3,3.2c-13.4,1.8-26.9,3.2-40.4,4.4v9
				c24.6-1.2,49.7-3.1,73.7-8.5C641.5,782.1,651.9,777,663,773.5z"/>
			<path fill="#FFFFFF" d="M619.1,776.6c5.7-0.9,14.3-0.7,19.3-3.8c3-1.9,3.6-5.3,7.5-6.8c3.5-1.4,7.9-1,11.6-1.3
				c7.6-0.5,15.3-1.2,22.9-2.1c7.3-0.9,14.5-1.9,21.7-3.2c7-1.2,14.3-2,20.3-5.9c0.5-0.3,0.6-1.1,0-1.4c-11.5-5.8-25.1-6.9-37.7-8.4
				c-8.2-1-16.9-0.7-25-2.3c-6.5-1.3-11.4-5.3-18.2-6.1c-28.1-3.7-56.9-4.3-85.2-3.7v1.6c21.4-0.4,42.8,0.1,64.2,1.7
				c5.9,0.4,11.7,0.9,17.6,1.6c3.1,0.3,6.3,0.6,9.2,1.5c2.8,0.9,5.1,2.7,7.8,3.8c4.2,1.7,8.8,1.7,13.2,2c5.8,0.4,11.7,1,17.5,1.7
				c6.5,0.8,12.9,1.7,19.3,2.9c2.5,0.5,5,1,7.4,1.7c1,0.3,2.1,0.6,3.1,0.9c5,1.7,4.8,1.3,2.2,3c-4.2,2.7-11.5,3-16.4,3.8
				c-6.7,1.2-13.4,2.2-20.1,3c-10.8,1.3-21.7,1.3-32.4,2.8c-2.4,0.3-5,0.9-7,2.5c-1.4,1.2-2.1,2.9-3.5,4.1c-2.5,2.2-5.7,2.4-9,3
				c-24.3,4.1-48.7,7.2-73.3,9.3v1.6c13.5-1.2,26.9-2.6,40.4-4.4C604.2,778.9,611.7,777.8,619.1,776.6z"/>
			<path fill="#FFFFFF" d="M637.8,758.8c10.3-3.2,21.4-1.6,31.6-5.1c0.7-0.2,0.9-1.4,0-1.5c-9.2-1.4-18.5-2.8-27.2-6.1
				c-8.7-3.3-16.1-5-25.5-5.1c-20.1-0.2-40.3,0.5-60.2-2.9v1.6c18.3,3.1,36.8,2.8,55.3,2.8c10.4,0,19.3,0.9,29,4.7
				c8,3.1,16.3,4.7,24.8,6c-9.2,2.3-18.9,1.3-28.1,4.1c-9.6,3-18.7,6.9-28.6,9.1c-17.3,3.9-34.8,7-52.4,9.8v1.6
				c17.7-2.8,35.3-5.9,52.8-9.8C619.1,765.7,628.2,761.8,637.8,758.8z"/>
			<path fill="#FFFFFF" d="M616.5,752.6c-9.8-2.9-19.7-1-29.7-0.9c-10.3,0.1-20.5-1.3-30.4-3.8v1.6c8.4,2.1,16.9,3.4,25.6,3.7
				c10.4,0.3,21-1.9,31.3,0.2c-18.6,5.9-37.6,10.2-56.9,13v1.6c20.4-3,40.5-7.6,60.1-13.9C617.3,753.9,617.3,752.8,616.5,752.6z"/>
			<path fill="#FFFFFF" d="M664.3,729.1c11.3,2.7,22,7.1,33,10.7c42.5,14,87.5,13.3,131.7,11.5v-1.6c-45.8,1.8-91.8,2.2-135.7-12.9
				c-10.9-3.8-21.8-7.9-33.1-10.2c-11.5-2.3-23.2-2.2-34.8-2.1c-23,0.1-46,0.2-69,0.3v1.6c23-0.1,46-0.2,69-0.3
				C638.5,725.9,651.5,726,664.3,729.1z"/>
			<path fill="#FFFFFF" d="M771.1,745.3c19.3,1.4,38.6,1.5,57.9,1.2v-1.6c-19.3,0.3-38.7,0.2-57.9-1.2c-13-0.9-26-2.4-38.8-4.9
				c-5.1-1-10.2-2.1-15.1-4c-5.7-2.2-10.8-5.5-16.4-7.9c-12-5.2-25.2-8.4-38.4-10.7h-10.2c19.2,2.9,38.7,7,55.7,15.9
				C727,742.1,749.9,743.7,771.1,745.3z"/>
			<path fill="#FFFFFF" d="M770.4,735.2c19.4,2.6,39,3.7,58.6,3.4V737c-20.3,0.3-40.5-0.9-60.6-3.6c-12.8-1.8-25.3-4.2-37.4-9
				c-6.6-2.6-13.2-5.4-19.8-8.2h-4c7.8,3.3,15.5,6.6,23.4,9.7C743.4,731,756.7,733.4,770.4,735.2z"/>
			<path fill="#FFFFFF" d="M776.3,726c17.4,2.9,35.1,4.6,52.7,6.6V731c-11.6-1.4-23.2-2.8-34.7-4.2c-7-0.9-14-1.6-21-2.9
				c-3.4-0.6-6.9-1.4-10.2-2.5c-1.5-0.5-3-0.9-4.4-1.5c-0.6-0.2-4.6-1.8-6.5-3.7h-1.9c0.3,0.7,0.8,1.4,1.4,1.9
				C757.2,723.6,769.1,724.8,776.3,726z"/>
			<path fill="#FFFFFF" d="M829,721.7c-7.9-0.6-15.4-2.6-22.5-5.5h-4c8.4,3.8,17.1,6.4,26.6,7.1V721.7z"/>
			<path fill="#FFFFFF" d="M659.1,776.5c11.9-4.3,24.4-5.7,36.9-7.4c26.8-3.6,53.6-6.9,80.7-7.1c17.5-0.2,34.9,0.8,52.3,2.2v-1.6
				c-17.4-1.3-34.8-2.3-52.3-2.2c-26.3,0.2-52.4,3.3-78.4,6.8c-11.8,1.6-23.9,2.7-35.3,6.3c-11.1,3.5-21.5,8.6-32.9,11.1
				c-24,5.4-49.1,7.3-73.7,8.5v1.6c23.2-1.2,46.7-3.1,69.4-7.6C637.5,784.9,648,780.6,659.1,776.5z"/>
			<path fill="#FFFFFF" d="M663,792.1c6.5-4.3,14.9-6.6,22.1-9.3c15.8-5.9,32-11.2,48.8-13.1c31.1-3.7,63.8-0.8,95,2.5v-1.6
				c-18.9-1.9-37.8-3.1-56.8-3.6c-19.2-0.5-38.4-0.1-57.2,4.5c-9.5,2.4-18.9,5.5-28.1,8.9c-7.6,2.8-15.9,5.3-23,9.3
				c-2.9,1.6-7.8,4.1-5.7,7.9c0.5,0.9,1.4,1.6,2.6,2.2h4.1C661.1,798,657.9,795.4,663,792.1z"/>
			<path fill="#FFFFFF" d="M829,781.6V780c-49.8-5-100.8-4.9-148,13.8c-0.6,0.3-0.8,1.1-0.2,1.5c3.2,2,6.4,3.5,9.8,4.6h7.3
				c-5.4-0.7-10.2-2.4-14.8-5.1C729.7,776.6,779.9,776.6,829,781.6z"/>
			<path fill="#FFFFFF" d="M829,794.3v-1.6c-40.8-7.8-82.9-6.4-123.1,4c-0.6,0.2-0.8,1.2-0.2,1.5c1.1,0.5,2.1,1.1,3.2,1.6h3.6
				c-1.4-0.7-2.8-1.4-4.1-2C747.9,787.8,789.1,786.6,829,794.3z"/>
			<path fill="#FFFFFF" d="M653.4,799.3c-13.5-7.6-29-5.1-43.6-2.9c-8,1.2-16,2.4-24,3.4h11.9c0.9-0.1,1.8-0.3,2.6-0.4
				c16.3-2.5,35-7.3,50.6,0.4h2.9C653.7,799.6,653.6,799.4,653.4,799.3z"/>
		</g>
	</g>
	
</g>
</svg>
