<?xml version="1.0" encoding="utf-8"?>
<!-- Generator: Adobe Illustrator 19.1.0, SVG Export Plug-In . SVG Version: 6.00 Build 0)  -->
<svg version="1.1" id="Layer_1" xmlns="http://www.w3.org/2000/svg" xmlns:xlink="http://www.w3.org/1999/xlink" x="0px" y="0px"
	 width="300px" height="300px" viewBox="800 0 700 700" enable-background="new 0 0 1400 1400" xml:space="preserve">
<g>
	<g>
		<path fill="#45771C" stroke="#FFFFFF" stroke-miterlimit="10" d="M1034.4,257.9c0,0-43.5-75.6-33.9-134.5
			c60.8,31.4,86.5,121.7,84.5,134.5C1083.1,270.7,1034.4,257.9,1034.4,257.9z"/>
		<path fill="#3B6126" stroke="#FFFFFF" stroke-miterlimit="10" d="M1136.6,260.3c1.5-1.1,8.3-85.3,71.3-136
			c25.7,79.2-23.9,138.5-23.9,138.5L1136.6,260.3z"/>
		<path fill="#45771C" stroke="#FFFFFF" stroke-miterlimit="10" d="M1105.2,308.8c0,0-41-158.8,33.3-207.5
			C1195.4,210.2,1124.4,283.2,1105.2,308.8z"/>
		<path fill="#3B6126" stroke="#FFFFFF" stroke-miterlimit="10" d="M1063.1,263.5c0,0-28.4-53,0-119.6
			c49.5,30.7,44.9,122.3,44.9,122.3L1063.1,263.5z"/>
		<g>
			<path fill="#FFFFFF" d="M1135.9,117c-7.8,58.7-17.2,117.2-28.3,175.3c-0.2,1,1.4,1.4,1.5,0.4c11.1-58.3,20.6-116.9,28.3-175.8
				C1137.7,116,1136.1,116,1135.9,117L1135.9,117z"/>
		</g>
		<g>
			<path fill="#FFFFFF" d="M1206.3,135.5c-15.5,43.2-33.3,85.5-53.4,126.8c-0.4,0.9,0.9,1.7,1.4,0.8c20.1-41.4,38-83.9,53.5-127.2
				C1208.1,134.9,1206.6,134.5,1206.3,135.5L1206.3,135.5z"/>
		</g>
		<g>
			<path fill="#FFFFFF" d="M1067.5,161.9c-0.8,16.4,2.6,32.3,5.7,48.3c3.4,17.3,6.8,34.6,10.3,51.9c0.2,1,1.7,0.6,1.5-0.4
				c-3.3-16.5-6.5-32.9-9.8-49.4c-3.3-16.6-7-33.3-6.2-50.3C1069.2,160.8,1067.6,160.8,1067.5,161.9L1067.5,161.9z"/>
		</g>
		<g>
			<path fill="#FFFFFF" d="M1006.9,137.1c6.7,20.8,13.8,41,25.2,59.8c6.3,10.3,9.7,21.5,13.5,32.9c3.9,11.8,7.8,23.5,11.7,35.3
				c0.3,1,1.9,0.6,1.5-0.4c-3.9-11.8-7.8-23.5-11.7-35.3c-3.3-9.9-6.1-20.1-11.3-29.3c-5.7-10.1-11.5-19.8-15.9-30.6
				c-4.4-10.7-7.9-21.8-11.5-32.8C1008.1,135.7,1006.5,136.1,1006.9,137.1L1006.9,137.1z"/>
		</g>
		<polygon fill="#AC6E27" stroke="#FFFFFF" stroke-miterlimit="10" points="1172.8,451.6 1041.5,451.6 1020.4,250.1 1193.9,250.1 		
			"/>
		<rect x="984.4" y="278.6" fill="#B69558" width="21.8" height="183.6"/>
		<rect x="1215.2" y="278.6" fill="#B69558" width="21.8" height="183.6"/>
		<rect x="971.7" y="278.6" fill="#C9A463" stroke="#FFFFFF" stroke-miterlimit="10" width="272.6" height="83.6"/>
		<rect x="971.7" y="378.6" fill="#C9A463" stroke="#FFFFFF" stroke-miterlimit="10" width="272.6" height="83.6"/>
		<g>
			<path fill="#FFFFFF" d="M1035.9,297.4c5.9,0.4,11.7,0.9,17.6,1.6c3.1,0.3,6.3,0.6,9.2,1.5c2.8,0.9,5.1,2.7,7.8,3.8
				c4.2,1.7,8.8,1.7,13.2,2c5.8,0.4,11.7,1,17.5,1.7c6.5,0.8,12.9,1.7,19.3,2.9c2.5,0.5,5,1,7.4,1.7c1,0.3,2.1,0.6,3.1,0.9
				c5,1.7,4.8,1.3,2.2,3c-4.2,2.7-11.5,3-16.4,3.8c-6.7,1.2-13.4,2.2-20.1,3c-10.8,1.3-21.7,1.3-32.4,2.8c-2.4,0.3-5,0.9-7,2.5
				c-1.4,1.2-2.1,2.9-3.5,4.1c-2.5,2.2-5.7,2.4-9,3c-24.3,4.1-48.7,7.2-73.3,9.3v1.6c13.5-1.2,26.9-2.6,40.4-4.4
				c7.5-1,14.9-2,22.3-3.2c5.7-0.9,14.3-0.7,19.3-3.8c3-1.9,3.6-5.3,7.5-6.8c3.5-1.4,7.9-1,11.6-1.3c7.6-0.5,15.3-1.2,22.9-2.1
				c7.3-0.9,14.5-1.9,21.7-3.2c7-1.2,14.3-2,20.3-5.9c0.5-0.3,0.6-1.1,0-1.4c-11.5-5.8-25.1-6.9-37.7-8.4c-8.2-1-16.9-0.7-25-2.3
				c-6.5-1.3-11.4-5.3-18.2-6.1c-28.1-3.7-56.9-4.3-85.2-3.7v1.6C993.1,295.2,1014.5,295.8,1035.9,297.4z"/>
			<path fill="#FFFFFF" d="M1024.5,330.3c9.9-2.2,19-6.1,28.6-9.1c10.3-3.2,21.4-1.6,31.6-5.1c0.7-0.2,0.9-1.4,0-1.5
				c-9.2-1.4-18.5-2.8-27.2-6.1c-8.7-3.3-16.1-5-25.5-5.1c-20.1-0.2-40.3,0.5-60.2-2.9v1.6c18.3,3.1,36.8,2.8,55.3,2.8
				c10.4,0,19.3,0.9,29,4.7c8,3.1,16.3,4.7,24.8,6c-9.2,2.3-18.9,1.3-28.1,4.1c-9.6,3-18.7,6.9-28.6,9.1c-17.3,3.9-34.8,7-52.4,9.8
				v1.6C989.3,337.3,1007,334.2,1024.5,330.3z"/>
			<path fill="#FFFFFF" d="M1031.8,315c-9.8-2.9-19.7-1-29.7-0.9c-10.3,0.1-20.5-1.3-30.4-3.8v1.6c8.4,2.1,16.9,3.4,25.6,3.7
				c10.4,0.3,21-1.9,31.3,0.2c-18.6,5.9-37.6,10.2-56.9,13v1.6c20.4-3,40.5-7.6,60.1-13.9C1032.5,316.3,1032.5,315.3,1031.8,315z"/>
			<path fill="#FFFFFF" d="M971.7,288.7c23-0.1,46-0.2,69-0.3c13.1-0.1,26.1,0,38.9,3.1c11.3,2.7,22,7.1,33,10.7
				c42.5,14,87.5,13.3,131.7,11.5V312c-45.8,1.8-91.8,2.2-135.7-12.9c-10.9-3.8-21.8-7.9-33.1-10.2c-11.5-2.3-23.2-2.2-34.8-2.1
				c-23,0.1-46,0.2-69,0.3V288.7z"/>
			<path fill="#FFFFFF" d="M1123.1,294.5c19.1,10,42,11.6,63.2,13.2c19.3,1.4,38.6,1.5,57.9,1.2v-1.6c-19.3,0.3-38.7,0.2-57.9-1.2
				c-13-0.9-26-2.4-38.8-4.9c-5.1-1-10.2-2.1-15.1-4c-5.7-2.2-10.8-5.5-16.4-7.9c-12-5.2-25.2-8.4-38.4-10.7h-10.2
				C1086.6,281.5,1106.1,285.7,1123.1,294.5z"/>
			<path fill="#FFFFFF" d="M1145.8,288.3c12.9,5.1,26.2,7.5,39.8,9.3c19.4,2.6,39,3.7,58.6,3.4v-1.6c-20.3,0.3-40.5-0.9-60.6-3.6
				c-12.8-1.8-25.3-4.2-37.4-9c-6.6-2.6-13.2-5.4-19.8-8.2h-4C1130.2,281.9,1138,285.2,1145.8,288.3z"/>
			<path fill="#FFFFFF" d="M1166.9,280.6c5.6,5.4,17.4,6.7,24.7,7.9c17.4,2.9,35.1,4.6,52.7,6.6v-1.6c-11.6-1.4-23.2-2.8-34.7-4.2
				c-7-0.9-14-1.6-21-2.9c-3.4-0.6-6.9-1.4-10.2-2.5c-1.5-0.5-3-0.9-4.4-1.5c-0.6-0.2-4.6-1.8-6.5-3.7h-1.9
				C1165.8,279.3,1166.3,280,1166.9,280.6z"/>
			<path fill="#FFFFFF" d="M1217.7,278.6c8.4,3.8,17.1,6.4,26.6,7.1v-1.6c-7.9-0.6-15.4-2.6-22.5-5.5H1217.7z"/>
			<path fill="#FFFFFF" d="M1192,322.9c-26.3,0.2-52.4,3.3-78.4,6.8c-11.8,1.6-23.9,2.7-35.3,6.3c-11.1,3.5-21.5,8.6-32.9,11.1
				c-24,5.4-49.1,7.3-73.7,8.5v1.6c23.2-1.2,46.7-3.1,69.4-7.6c11.7-2.3,22.2-6.6,33.3-10.6c11.9-4.3,24.4-5.7,36.9-7.4
				c26.8-3.6,53.6-6.9,80.7-7.1c17.5-0.2,34.9,0.8,52.3,2.2V325C1226.9,323.7,1209.4,322.7,1192,322.9z"/>
			<path fill="#FFFFFF" d="M1078.3,354.5c6.5-4.3,14.9-6.6,22.1-9.3c15.8-5.9,32-11.2,48.8-13.1c31.1-3.7,63.8-0.8,95,2.5V333
				c-18.9-1.9-37.8-3.1-56.8-3.6c-19.2-0.5-38.4-0.1-57.2,4.5c-9.5,2.4-18.9,5.5-28.1,8.9c-7.6,2.8-15.9,5.3-23,9.3
				c-2.9,1.6-7.8,4.1-5.7,7.9c0.5,0.9,1.4,1.6,2.6,2.2h4.1C1076.3,360.4,1073.1,357.9,1078.3,354.5z"/>
			<path fill="#FFFFFF" d="M1096.3,356.2c-0.6,0.3-0.8,1.1-0.2,1.5c3.2,2,6.4,3.5,9.8,4.6h7.3c-5.4-0.7-10.2-2.4-14.8-5.1
				c46.6-18.1,96.8-18.1,145.9-13.1v-1.6C1194.5,337.4,1143.5,337.5,1096.3,356.2z"/>
			<path fill="#FFFFFF" d="M1123.6,360.2c39.5-10,80.7-11.1,120.6-3.4v-1.6c-40.8-7.8-82.9-6.4-123.1,4c-0.6,0.2-0.8,1.2-0.2,1.5
				c1.1,0.5,2.1,1.1,3.2,1.6h3.6C1126.4,361.5,1125,360.9,1123.6,360.2z"/>
			<path fill="#FFFFFF" d="M1068.6,361.7c-13.5-7.6-29-5.1-43.6-2.9c-8,1.2-16,2.4-24,3.4h11.9c0.9-0.1,1.8-0.3,2.6-0.4
				c16.3-2.5,35-7.3,50.6,0.4h2.9C1069,362,1068.8,361.8,1068.6,361.7z"/>
			<path fill="#FFFFFF" d="M1107.5,446.5c11.3,2.3,23,1.1,34.4,0.5c13.5-0.6,26.8,1,40.2,2.3c7.1,0.7,14.2,1.2,21.4,0.9
				c7.2-0.3,14.3-1.6,21.5-1.8c6.5-0.1,12.9,0.2,19.4,0.6v-1.5c-2.4-0.1-4.8-0.3-7.2-0.4c-11.8-0.6-23.1,1.2-34.8,1.5
				c-11.2,0.3-22.2-1.2-33.3-2.3c-11.4-1.1-22.6-1.2-34-0.6c-11.2,0.6-22.9,1.2-33.6-2.6c-1.7-0.6-3.5-1.4-5-2.4
				c-3.4-2.4-3.5-3.2-2.5-7.2c1.3-5.1,0.2-2.8,2.7-4.7c1.2-0.9,3.9-1.7,5.6-2.3c4.6-1.6,9.4-2.7,14.2-3.5
				c10.1-1.7,20.4-2.2,30.5-4.1c9.3-1.8,17.3-5.2,25.6-9.7c12.3-6.6,23.9-8.1,37.7-8c11.3,0.1,22.6,0.6,33.9,1.5v-1.6
				c-11.3-0.9-22.6-1.4-33.9-1.5c-11-0.1-21.8,0.2-32,4.9c-11.4,5.2-21.3,11.1-33.9,13.2c-11.5,2-23.3,2.4-34.7,5
				c-5.5,1.3-19.2,3.8-19.5,11.4C1090.1,442.1,1101.6,445.2,1107.5,446.5z"/>
			<path fill="#FFFFFF" d="M1207.8,441.6c-22.2,0.5-44.6-1.6-66.8-2.5c-11.2-0.5-22.6-0.5-33.8-1.4c-2.6-0.2-4.2,0.8-3.8-2.4
				c0.4-2.8,0.3-1.6,2.3-2.6c1.8-0.9,4.4-1.1,6.3-1.5c5.7-1,11.5-1.3,17.3-1.8c18.9-1.8,34.7-10.5,52.1-17.2
				c20.2-7.8,41.6-5.9,62.8-4.3v-1.6c-11.6-0.8-23.3-1.7-34.9-1.6c-12.1,0.1-23.3,3.8-34.3,8.4c-12.1,5.1-24.1,11.3-37.2,13.6
				c-13.1,2.3-26.4,1.1-38.7,6.9c-0.3,0.2-0.4,0.6-0.4,0.9c0.5,3,2.8,4,5.7,4.5c6.5,1.2,13.8,0.7,20.4,1c15.8,0.7,31.7,1.4,47.5,2
				c14.9,0.6,30,2,44.9,0.6c9.4-0.9,18.3-1.5,27-0.5v-2c-1.7-0.2-3.5-0.4-5.2-0.5C1228.6,439.2,1218.3,441.4,1207.8,441.6z"/>
			<path fill="#FFFFFF" d="M1186.2,434.5c-12.9,0.2-26.4,1.7-39.2,0.7c-2,0.5-3.2-0.2-3.5-2.1c1.6-0.5,3.2-1.1,4.8-1.6
				c3.2-1.1,6.3-2.1,9.5-3.2c5.9-2,11.8-4,17.7-5.9c12.6-4.2,25.3-7.7,38.7-7.7c10,0,20,0.7,30.1,1.4v-1.6
				c-15.6-1.1-31.6-2.6-46.9,0.3c-19.3,3.7-38.1,11.5-56.7,17.7c-0.5,0.2-0.8,0.7-0.5,1.2c3.2,4.6,9.7,3.2,14.6,3.2
				c10.5-0.2,20.9-0.4,31.4-0.6C1187.2,436.1,1187.2,434.5,1186.2,434.5z"/>
			<path fill="#FFFFFF" d="M1199.7,436.4c-1,0-1,1.6,0,1.6c14.9,0,29.8-0.3,44.6-0.9v-1.6C1229.4,436.1,1214.5,436.4,1199.7,436.4z"
				/>
			<path fill="#FFFFFF" d="M1244.3,422.3v-1.6c-8.5,0.8-17.1,1.6-25.6,2.4c-12.6,1.2-26.1,1.2-37.9,6.2c-0.8,0.3-0.3,1.5,0.4,1.5
				c21-0.4,42-0.6,63.1-0.6v-1.6c-19.5,0-38.9,0.1-58.4,0.5c12-3.9,25.5-3.7,37.8-4.8C1230.5,423.5,1237.4,422.9,1244.3,422.3z"/>
			<path fill="#FFFFFF" d="M1035.4,439.3c23.9-3.4,44.8-15.7,68.4-20.1c12-2.3,23.1-4,34.4-9c11.4-5,22.7-9.4,34.9-12.1
				c23.7-5.3,47.4-3.7,71.2-0.7v-1.6c-20.8-2.6-41.7-4.3-62.5-1c-12.2,2-24.2,5.4-35.6,10.2c-11.9,5-22.8,9.5-35.7,11.5
				c-24.5,3.9-46.4,16.3-70.8,20.6c-22.5,3.9-45.3,2.8-68,1.1v1.6C992.9,441.3,1014.3,442.4,1035.4,439.3z"/>
			<path fill="#FFFFFF" d="M1202.1,387.2c-19.6,0.9-37.4,2.7-55.7,10.4c-8.8,3.7-17.4,6.8-26.8,8.2c-9.9,1.5-19.4,3-28.9,6.2
				c-18.5,6.2-35.9,14.4-55.4,17.5c-21.1,3.3-42.6,2.3-63.6-0.9v1.6c16.1,2.4,32.5,3.6,48.8,2.5c19.8-1.3,38.1-6.7,56.5-13.9
				c9-3.5,18.1-7,27.5-9c9.5-2.1,19.4-2.4,28.7-5.4c9.3-3,18-7.7,27.4-10.6c10.3-3.2,21-4.1,31.7-4.6c17.3-0.9,34.7-1.7,52-2.4v-1.6
				C1230.2,385.9,1216.2,386.5,1202.1,387.2z"/>
			<path fill="#FFFFFF" d="M1114.6,378.7c1.3,0.9,2.3,2.1,3.1,3.5c-0.8,2.5-1.5,5.1-2.3,7.6c-2.2,2.7-8.8,4.3-11.7,5.3
				c-7.1,2.6-14.5,4.5-21.5,7.4c-6.5,2.7-12.4,6.6-18.6,9.8c-14.8,7.8-32.3,9.3-48.7,10.7c-14.5,1.3-28.9,1.5-43.2-0.8v1.6
				c17.1,2.7,34.5,1.9,51.8,0c9.4-1.1,18.9-2.1,28-4.8c9.5-2.8,17.4-8.3,26.2-12.7c9.5-4.8,19.9-7,29.7-11c4.2-1.7,12.8-4.3,13-10.1
				c0.1-2.5-1.3-4.8-3.2-6.7L1114.6,378.7C1114.5,378.6,1114.6,378.6,1114.6,378.7z"/>
			<path fill="#FFFFFF" d="M1029.1,415.5c-6.9,0.4-14-0.1-21-0.2c-12.2-0.2-24.3-0.4-36.5-0.6v1.6c15.9,0.3,31.8,0.5,47.7,0.8
				c8.2,0.1,15.9,0.1,23.6-3c7.4-3,14.3-7.1,21.4-10.8c7.9-4.1,16.4-7.6,23.8-12.4c3.2-2.1,4.7-4.4,2.2-7.9
				c-1.2-1.7-2.9-3.1-4.8-4.4h-3.7c1,0.6,2,1.2,3,1.8c1,0.7,2,1.5,3,2.2c-0.2,2.3-0.3,4.6-0.5,6.9c-1.2,1.8-6.7,3.5-8.7,4.5
				c-3.3,1.7-6.5,3.4-9.8,5.1c-6.1,3.2-12.3,6.4-18.4,9.6C1043.6,412.2,1037,415,1029.1,415.5z"/>
			<path fill="#FFFFFF" d="M1058.4,389.9c-2.5,2.5-5.4,4.5-8.5,6.2c-12.6,6.7-27.5,6.9-41.4,7.5c-12.2,0.5-24.5,0.7-36.8,0.5v1.6
				c16.7,0.2,33.4-0.1,50.1-1.3c14.3-1,30.1-4,39.8-15.5c5.1-6-0.2-8.8-6.8-10.3h-11.5c4.2,0.8,8.4,1.6,12.5,2.4
				c1,0.2,2.9,0.2,3.8,0.8C1063.8,384.8,1060.2,388.1,1058.4,389.9z"/>
			<path fill="#FFFFFF" d="M1034.8,389.3c-20,8.4-42,4.8-63.2,4.3v1.6c22.2,0.4,45.1,4.2,65.9-5.4c0.7-0.3,0.4-1.3-0.2-1.5
				c-21.8-6.8-43.7-3.1-65.7,0.2v1.6C992.8,386.9,1013.9,383.4,1034.8,389.3z"/>
			<path fill="#FFFFFF" d="M1131.8,382.5c4,2.9,11.7,2.3,16.2,2c10-0.6,19.7-3.4,29.4-5.9h-6.2c-6.9,1.8-13.9,3.5-21,4.2
				c-3.6,0.3-7.2,0.4-10.8,0c-3.6-0.4-5.6-2-7.2-4.2h-2.7C1129.9,380.1,1130.4,381.5,1131.8,382.5z"/>
			<path fill="#FFFFFF" d="M1244.3,456.7c-31.3,1.6-62.7,1.8-94,0.3c-21.5-1-42.1-2.9-62-11.5c-17.9-7.8-36.2-1.3-54.7,0.7
				c-11.3,1.3-22.7,1.9-34,1.8c-9.3,0-18.9,0-27.9-2.7v1.7c14.5,4.4,31.7,2.9,46.1,2c9.8-0.6,19.6-1.6,29.3-3.1
				c11.3-1.8,23-4.9,34.3-1.5c9.5,2.9,18,7.6,27.9,9.8c9.5,2.1,19.2,3,28.8,3.6c21.8,1.4,43.7,1.9,65.5,1.7
				c13.6-0.1,27.1-0.6,40.7-1.3V456.7z"/>
			<path fill="#FFFFFF" d="M1082.6,454.2c-14.1-2.8-28.7-2.2-43-0.8c-22.5,2.2-45.6,6.5-67.9,3.1v1.6c21.6,3.2,43.9-0.6,65.6-2.9
				c15.6-1.6,31.7-2.5,47.1,1c6,1.3,11.7,3.7,17.4,6h4.2C1098.2,459.4,1090.6,455.8,1082.6,454.2z"/>
		</g>
	</g>
	
</g>
</svg>
